<?xml version="1.0" encoding="UTF-8" standalone="no"?>
<!DOCTYPE svg PUBLIC "-//W3C//DTD SVG 1.1//EN" "http://www.w3.org/Graphics/SVG/1.1/DTD/svg11.dtd">
<svg xmlns="http://www.w3.org/2000/svg" version="1.1" viewBox="0.00 0.00 1440.00 1024.00">
<path fill="#ffffff" d="
  M 500.46 135.29
  A 1.41 1.41 0.0 0 0 498.05 136.26
  C 498.01 139.90 496.65 144.22 496.25 146.63
  Q 494.28 158.57 493.40 170.64
  Q 493.37 171.13 493.09 171.53
  C 492.63 172.20 493.00 172.84 492.93 173.50
  Q 492.06 181.74 491.60 190.00
  Q 491.59 190.10 490.84 197.97
  C 490.45 202.06 490.88 206.49 490.80 210.01
  Q 490.64 216.46 490.82 222.91
  C 490.89 225.27 489.82 229.43 491.63 232.39
  Q 493.00 234.63 490.68 233.39
  C 483.82 229.72 476.35 224.55 468.62 222.45
  A 0.24 0.23 -50.5 0 1 468.58 222.01
  Q 468.80 221.90 468.60 221.65
  Q 468.46 221.48 468.23 221.46
  Q 465.41 221.18 462.59 219.70
  Q 458.28 217.44 452.87 216.29
  Q 452.39 216.19 452.02 215.87
  Q 451.57 215.48 451.01 215.30
  Q 430.92 208.89 425.50 207.75
  C 418.11 206.20 410.61 204.31 403.33 203.11
  Q 398.41 202.30 393.49 201.54
  C 392.03 201.31 390.12 201.62 388.51 201.13
  C 384.86 200.01 380.09 199.70 375.67 200.05
  Q 374.99 200.10 375.00 200.79
  L 375.01 201.96
  A 0.56 0.56 0.0 0 0 375.71 202.49
  L 376.23 202.35
  A 0.48 0.48 0.0 0 1 376.83 202.82
  Q 376.83 204.17 378.07 206.17
  Q 380.66 210.33 382.72 216.14
  C 385.85 224.96 385.42 235.59 384.51 244.80
  C 384.26 247.32 382.85 249.68 382.97 252.48
  A 1.46 1.45 -1.7 0 1 381.53 254.00
  C 377.27 254.04 373.98 251.76 369.62 251.43
  Q 368.21 251.32 366.95 250.92
  C 363.71 249.90 359.91 250.00 356.53 249.34
  C 349.75 248.02 343.83 247.76 337.39 246.96
  C 324.02 245.28 307.49 245.92 296.25 246.11
  Q 291.03 246.20 287.69 247.57
  Q 287.43 247.67 287.39 247.40
  Q 287.36 247.24 287.38 247.09
  Q 287.41 246.92 287.26 247.00
  Q 284.95 248.15 282.36 248.13
  Q 281.32 248.12 281.78 249.05
  Q 282.47 250.49 283.75 251.88
  C 285.97 254.30 288.37 259.76 288.99 262.93
  C 291.34 274.97 290.10 292.01 282.17 302.01
  C 276.30 309.41 269.12 315.76 262.31 322.29
  Q 253.92 330.33 238.64 349.00
  C 230.96 358.38 224.63 368.77 217.65 378.65
  Q 213.20 384.94 203.53 404.36
  Q 203.38 404.66 203.38 405.00
  L 203.38 405.34
  A 0.22 0.22 0.0 0 1 203.07 405.54
  Q 202.90 405.47 202.74 405.40
  A 0.18 0.18 0.0 0 0 202.50 405.53
  Q 202.17 407.35 201.56 409.10
  Q 201.42 409.48 201.12 409.59
  Q 200.72 409.74 200.59 410.16
  Q 199.70 413.02 198.29 415.66
  Q 196.46 419.09 195.74 421.08
  C 193.90 426.13 191.68 431.28 190.08 436.12
  C 185.80 449.12 182.79 459.25 180.23 472.26
  Q 180.17 472.59 179.93 472.94
  Q 179.65 473.34 179.61 473.62
  Q 178.87 478.31 178.16 483.01
  Q 178.14 483.16 177.92 483.21
  Q 177.67 483.27 177.64 483.52
  Q 176.89 489.64 176.16 495.76
  Q 176.14 495.90 175.94 495.96
  Q 175.71 496.02 175.69 496.26
  Q 174.89 504.56 174.33 512.87
  C 174.25 514.11 173.57 515.14 173.50 516.23
  Q 172.45 535.44 173.38 554.64
  C 173.49 556.99 174.41 559.45 174.54 562.00
  Q 174.91 569.16 175.56 576.29
  Q 175.58 576.50 175.77 576.61
  L 176.02 576.74
  Q 176.19 576.83 176.21 577.03
  Q 176.77 583.55 177.85 589.99
  Q 181.11 609.55 186.59 628.61
  A 1.01 0.97 -40.0 0 1 186.51 629.35
  Q 186.13 630.10 186.86 630.55
  A 1.04 1.01 -82.7 0 1 187.32 631.16
  C 190.89 644.34 195.90 657.17 200.51 670.01
  Q 200.67 670.48 201.00 670.84
  C 201.89 671.82 202.13 673.81 202.92 675.05
  C 203.57 676.06 203.73 677.09 204.19 678.20
  Q 207.52 686.20 210.75 694.25
  Q 211.07 695.05 210.82 695.72
  A 0.29 0.29 0.0 0 1 210.28 695.73
  L 209.83 694.61
  Q 209.61 694.04 209.03 693.81
  Q 207.86 693.36 207.75 692.12
  Q 207.71 691.63 207.24 691.47
  Q 205.52 690.91 205.65 688.74
  A 0.29 0.29 0.0 0 0 205.25 688.46
  L 204.97 688.59
  Q 204.51 688.78 204.22 688.38
  C 198.07 679.92 193.05 671.47 189.34 665.23
  Q 183.97 656.19 178.30 644.33
  C 172.29 631.74 168.30 618.58 164.38 605.25
  Q 162.09 597.46 160.71 591.12
  C 157.11 574.51 154.24 557.04 153.54 540.05
  C 153.43 537.29 152.71 534.71 152.21 532.01
  Q 152.08 531.32 152.43 531.03
  Q 152.95 530.60 153.01 531.27
  L 153.10 532.20
  Q 153.16 532.80 153.52 532.32
  Q 153.87 531.86 153.68 531.23
  C 151.41 523.75 151.61 515.78 152.76 508.14
  C 152.93 506.96 152.33 506.26 152.37 505.19
  C 152.50 501.60 153.34 497.84 153.55 494.60
  C 153.94 488.48 154.34 482.31 155.12 476.23
  C 157.76 455.81 162.13 434.70 168.67 415.17
  C 170.79 408.82 172.68 402.34 175.21 396.13
  C 176.35 393.33 177.30 390.28 178.43 387.68
  Q 191.40 358.05 205.24 336.00
  Q 210.29 327.94 220.78 313.61
  Q 225.24 307.53 232.45 299.03
  C 240.25 289.83 248.60 280.87 252.65 269.25
  Q 252.78 268.88 253.15 268.72
  Q 253.42 268.61 253.55 268.34
  A 0.25 0.25 0.0 0 0 253.30 267.98
  Q 253.14 268.00 252.99 268.01
  Q 252.76 268.04 252.77 267.81
  Q 252.77 267.42 253.05 267.18
  Q 253.37 266.90 253.44 266.48
  Q 254.85 257.63 253.53 248.75
  Q 253.44 248.21 252.86 247.70
  A 1.81 1.76 12.4 0 1 252.35 246.93
  C 250.89 242.57 248.97 240.25 246.35 237.71
  Q 245.90 237.27 246.43 236.91
  Q 254.44 231.55 263.48 228.31
  C 264.02 228.12 264.31 227.67 264.99 227.48
  C 268.32 226.56 271.24 225.48 274.76 224.78
  Q 276.28 224.48 277.61 223.60
  Q 278.02 223.34 278.50 223.30
  C 283.71 222.95 289.13 221.59 293.82 221.24
  C 310.75 219.98 324.55 220.53 340.00 221.22
  Q 342.54 221.33 344.32 222.53
  A 1.71 1.71 0.0 0 0 346.77 221.94
  Q 347.50 220.62 346.88 219.28
  Q 346.66 218.81 346.63 218.30
  C 346.55 216.97 346.60 215.54 346.32 214.25
  Q 342.13 194.53 336.98 175.04
  C 336.45 173.03 335.00 170.71 334.88 167.89
  A 0.72 0.72 0.0 0 1 335.51 167.15
  L 343.39 166.25
  Q 343.86 166.20 344.28 165.99
  Q 345.77 165.23 347.49 165.38
  Q 358.74 166.36 369.98 165.63
  Q 374.08 165.37 378.00 165.93
  Q 385.47 166.99 393.00 167.52
  C 394.39 167.62 395.59 168.43 397.03 168.56
  Q 401.43 168.97 405.76 169.81
  Q 406.18 169.89 406.47 170.19
  A 1.17 1.13 -17.7 0 0 407.16 170.53
  Q 411.23 170.98 415.15 172.06
  Q 422.71 174.13 430.38 175.75
  Q 430.85 175.85 431.22 176.16
  Q 431.56 176.43 431.99 176.54
  C 438.06 178.09 445.45 181.19 451.61 181.10
  A 2.32 2.32 0.0 0 0 453.90 178.71
  L 453.61 169.78
  Q 453.61 169.56 453.39 169.56
  L 453.10 169.56
  Q 453.05 169.56 453.04 169.61
  L 452.86 179.69
  Q 452.85 179.87 452.70 179.89
  L 452.69 179.89
  A 0.26 0.26 0.0 0 1 452.41 179.67
  Q 451.55 173.77 452.48 167.98
  Q 453.42 162.19 453.52 159.94
  Q 454.04 148.23 454.43 142.62
  Q 454.50 141.48 455.49 140.56
  Q 455.84 140.23 455.45 139.95
  Q 455.28 139.83 455.10 139.93
  Q 454.81 140.10 454.72 139.78
  Q 454.44 138.81 455.11 137.97
  Q 455.42 137.58 455.45 137.09
  Q 455.91 129.86 456.30 127.50
  Q 460.61 101.30 464.71 86.00
  Q 468.76 70.87 472.77 55.73
  C 473.53 52.83 475.10 49.29 475.22 45.41
  A 1.12 1.12 0.0 0 1 476.92 44.48
  L 478.37 45.36
  Q 478.82 45.63 478.88 46.15
  L 479.14 48.62
  Q 479.20 49.16 479.57 49.57
  Q 481.22 51.40 481.30 53.92
  A 0.47 0.47 0.0 0 0 481.83 54.37
  Q 482.65 54.26 482.39 55.19
  Q 482.25 55.66 482.47 56.10
  L 496.68 84.32
  A 3.64 2.87 29.0 0 0 496.93 84.73
  Q 499.30 88.17 502.34 93.65
  Q 503.66 96.04 505.82 99.19
  C 507.74 102.01 509.42 105.22 511.26 107.84
  C 516.45 115.26 521.42 122.79 527.11 129.84
  C 534.60 139.15 541.99 148.44 550.13 157.20
  C 554.65 162.06 560.41 168.67 565.93 174.07
  C 583.96 191.72 602.64 208.46 621.60 225.08
  C 637.66 239.17 654.01 252.97 669.77 267.39
  C 670.38 267.95 670.86 269.19 671.90 269.60
  Q 672.30 269.76 672.39 270.17
  Q 672.67 271.39 673.86 271.66
  Q 674.27 271.76 674.48 272.13
  Q 675.67 274.23 677.98 277.03
  Q 681.20 280.94 684.30 288.07
  Q 688.43 297.57 692.78 306.98
  C 693.80 309.21 694.70 312.40 696.10 315.16
  C 697.94 318.80 699.31 322.69 701.31 326.08
  Q 703.78 330.30 706.23 334.52
  Q 709.20 339.63 715.96 344.39
  Q 716.28 344.62 716.50 344.94
  Q 716.77 345.36 717.51 345.94
  Q 756.70 376.81 783.94 397.37
  C 790.63 402.42 796.82 407.74 803.18 413.06
  C 803.95 413.71 804.46 414.55 805.15 415.33
  Q 805.48 415.70 805.57 416.18
  C 806.42 420.97 805.76 424.81 804.67 429.55
  Q 803.68 433.81 802.11 436.73
  Q 797.61 445.08 788.77 450.53
  C 777.51 457.47 765.40 461.61 753.00 464.98
  Q 752.19 465.20 750.57 465.87
  C 747.66 467.06 743.81 467.92 740.63 468.70
  C 738.50 469.22 736.66 470.44 734.56 470.81
  C 732.11 471.25 730.17 472.29 727.88 472.86
  C 724.03 473.81 720.69 475.19 717.11 476.44
  C 711.98 478.24 706.10 482.44 700.70 482.54
  Q 699.28 482.57 696.43 481.66
  C 694.52 481.05 692.55 480.90 690.79 479.97
  Q 686.01 477.45 681.21 474.96
  C 679.09 473.86 677.32 472.16 675.16 470.86
  Q 674.70 470.58 674.38 470.16
  Q 673.47 468.97 671.93 468.77
  Q 671.38 468.70 671.36 468.16
  Q 671.32 467.34 670.50 467.25
  Q 669.96 467.19 669.52 466.88
  Q 664.11 463.05 658.66 459.32
  C 649.60 453.12 643.00 449.91 635.18 445.87
  C 629.73 443.05 624.35 439.99 618.76 437.83
  Q 608.56 433.88 598.09 430.73
  Q 598.06 430.72 595.88 430.35
  C 594.80 430.17 594.01 429.43 593.02 429.22
  Q 579.83 426.40 575.74 426.31
  Q 573.05 426.25 571.72 426.00
  Q 561.43 424.11 551.22 425.79
  Q 547.68 426.37 545.23 426.59
  C 537.85 427.23 533.67 429.40 528.47 433.74
  Q 520.55 440.34 516.81 449.95
  C 514.03 457.09 511.23 466.32 511.40 474.01
  C 511.41 474.43 511.24 474.72 510.99 475.02
  Q 510.75 475.29 510.72 475.64
  Q 509.36 491.57 510.74 509.25
  C 510.86 510.76 511.32 512.01 511.36 513.26
  Q 511.59 521.29 512.91 529.20
  C 513.63 533.50 514.02 539.07 515.32 543.94
  C 515.86 545.94 515.24 547.76 515.71 549.55
  Q 517.10 554.78 517.83 560.14
  Q 517.87 560.42 518.04 560.69
  Q 518.28 561.08 518.31 561.25
  Q 519.01 566.46 520.26 571.56
  Q 521.74 577.61 523.20 583.67
  C 523.58 585.20 524.75 588.51 525.13 591.09
  Q 525.35 592.60 526.04 594.24
  C 527.14 596.87 527.16 599.88 528.08 602.48
  C 528.82 604.57 529.21 606.80 529.86 608.78
  Q 531.34 613.33 533.71 622.49
  Q 536.31 632.56 544.63 656.15
  C 545.45 658.49 546.05 662.26 547.54 665.07
  Q 548.07 666.06 547.66 666.83
  Q 547.39 667.31 546.94 666.99
  C 540.57 662.45 533.59 658.51 527.52 653.63
  C 525.37 651.91 522.86 650.28 520.89 648.72
  C 512.91 642.42 504.77 636.32 496.78 630.02
  C 493.85 627.70 490.56 625.82 487.69 623.46
  C 485.94 622.02 484.19 621.43 482.61 619.45
  Q 482.09 618.80 481.32 619.13
  L 479.99 619.70
  Q 479.27 620.01 479.96 620.39
  Q 481.01 620.98 480.98 623.50
  Q 480.81 636.95 481.43 650.38
  Q 481.59 653.74 482.41 659.58
  Q 483.29 665.89 482.86 668.87
  Q 482.43 671.90 482.63 673.91
  C 484.06 688.21 482.24 702.88 483.42 717.27
  Q 483.77 721.55 483.81 725.85
  C 483.82 727.97 484.77 729.93 484.66 732.25
  Q 484.15 743.93 485.94 755.49
  C 486.57 759.51 486.35 764.01 486.88 767.48
  Q 487.53 771.68 488.63 775.84
  Q 489.43 778.84 486.44 778.01
  C 483.73 777.26 477.15 777.45 474.74 775.67
  A 1.72 1.69 -23.8 0 0 473.86 775.34
  C 470.49 775.06 467.20 773.56 464.73 772.83
  Q 460.73 771.65 456.72 770.48
  Q 456.56 770.43 456.55 770.25
  Q 456.53 770.03 456.75 770.03
  L 457.51 770.03
  A 0.22 0.22 0.0 0 0 457.61 769.61
  Q 456.87 769.23 456.01 769.40
  A 1.92 1.88 -40.8 0 1 455.07 769.34
  C 448.72 767.36 443.19 764.39 437.35 761.31
  C 429.51 757.19 421.96 753.26 414.48 747.96
  Q 409.76 744.61 404.99 741.36
  Q 404.70 741.16 404.53 740.86
  Q 404.43 740.67 404.23 740.53
  C 387.92 728.67 373.41 714.06 360.64 698.51
  C 346.82 681.68 336.20 663.60 328.48 643.20
  C 325.98 636.57 324.20 629.44 323.21 622.23
  Q 322.66 618.20 321.67 614.26
  C 321.13 612.05 322.22 609.93 321.45 607.92
  Q 321.14 607.11 321.32 606.62
  Q 321.94 604.95 322.57 606.62
  Q 322.82 607.28 323.32 608.21
  Q 331.81 624.17 341.61 639.36
  C 343.38 642.11 345.68 644.86 347.67 647.65
  C 357.91 662.04 369.41 674.05 382.44 685.90
  C 392.28 694.86 402.97 702.08 414.33 708.63
  A 0.62 0.61 3.3 0 1 414.58 708.91
  Q 414.69 709.19 415.00 709.34
  Q 417.89 710.79 420.75 712.28
  C 423.63 713.78 427.66 714.73 430.84 717.07
  Q 431.23 717.35 431.72 717.41
  Q 435.26 717.82 439.63 719.64
  Q 441.47 720.41 442.73 718.74
  A 1.46 1.40 64.6 0 0 443.02 717.87
  Q 442.94 700.41 443.07 682.96
  C 443.08 681.40 443.51 679.47 443.38 677.66
  C 443.18 674.61 443.13 671.54 443.65 668.75
  C 444.24 665.60 443.86 662.60 444.44 659.44
  C 444.86 657.19 445.18 654.85 444.56 652.60
  Q 444.13 651.04 444.15 650.06
  Q 444.24 644.27 444.09 638.46
  C 444.05 636.79 445.00 635.64 444.97 634.11
  C 444.91 630.60 445.30 627.17 445.24 623.68
  C 445.22 622.41 445.79 621.26 445.81 620.09
  Q 445.86 616.61 446.17 613.15
  C 446.58 608.59 446.16 604.11 446.42 599.50
  Q 447.37 582.87 448.40 566.24
  C 448.57 563.57 448.00 561.45 449.17 559.01
  A 1.90 1.86 -35.9 0 0 449.34 558.03
  Q 449.13 555.77 450.56 554.00
  A 0.45 0.45 0.0 0 1 451.26 553.99
  C 453.24 556.38 454.44 559.42 456.06 561.58
  Q 465.39 574.06 477.78 583.57
  Q 478.30 583.60 478.44 584.07
  Q 478.57 584.49 478.91 584.77
  L 490.52 594.14
  Q 491.63 595.04 491.99 593.66
  L 492.37 592.22
  Q 492.67 591.09 491.93 590.19
  C 491.04 589.12 491.13 586.51 490.84 585.22
  Q 485.36 559.91 481.90 534.25
  Q 480.81 526.22 480.37 518.13
  Q 480.34 517.65 480.07 517.26
  Q 479.34 516.15 479.47 514.88
  Q 479.54 514.27 480.12 514.05
  Q 480.64 513.84 480.53 513.16
  A 0.21 0.20 -10.3 0 0 480.28 512.99
  Q 480.14 513.03 479.99 513.06
  A 0.43 0.43 0.0 0 1 479.45 512.66
  Q 478.30 488.86 479.37 465.49
  Q 479.45 463.72 479.85 462.42
  C 480.89 459.01 480.83 455.46 481.58 451.96
  Q 481.70 451.42 481.61 450.87
  Q 481.49 450.15 481.98 449.57
  Q 482.29 449.20 482.39 448.73
  Q 486.02 430.12 496.74 414.47
  Q 500.65 408.76 504.46 405.71
  C 508.95 402.13 513.03 398.22 518.50 396.08
  C 521.08 395.08 523.34 393.75 525.95 392.98
  Q 527.27 392.59 531.15 391.29
  C 533.47 390.51 536.38 390.37 538.22 390.09
  C 545.14 389.04 551.91 388.12 558.95 388.56
  Q 582.54 390.03 605.36 396.26
  C 607.55 396.86 609.79 398.37 611.31 399.68
  C 623.45 410.19 633.41 416.92 647.68 424.80
  C 656.63 429.74 667.46 434.81 679.47 438.64
  Q 680.29 438.90 680.38 438.94
  Q 682.26 439.70 686.26 440.50
  C 690.25 441.31 693.91 442.32 698.02 442.66
  Q 698.51 442.70 698.93 442.94
  Q 700.66 443.94 702.36 442.59
  Q 703.27 441.88 702.77 442.83
  Q 702.65 443.06 702.32 443.29
  Q 702.11 443.43 702.26 443.64
  L 702.43 443.89
  Q 702.50 443.99 702.59 443.90
  L 703.45 442.96
  Q 703.80 442.59 703.65 442.10
  Q 702.98 439.94 703.33 437.65
  Q 703.38 437.34 703.14 437.14
  L 702.87 436.92
  A 0.77 0.76 -72.1 0 1 702.60 436.38
  C 702.47 434.07 702.65 431.82 702.07 429.59
  Q 701.14 425.98 700.20 422.37
  C 699.03 417.86 697.38 414.16 695.50 410.03
  C 692.44 403.30 685.24 396.36 679.66 391.79
  Q 678.91 391.18 679.84 391.46
  Q 680.63 391.70 681.17 391.36
  C 683.73 389.72 688.76 388.52 690.50 388.29
  C 695.97 387.59 701.57 386.73 707.10 387.09
  A 1.36 1.33 63.1 0 1 707.78 387.32
  L 708.74 387.95
  A 0.41 0.40 -81.9 0 0 709.35 387.49
  Q 709.11 386.72 709.52 386.09
  Q 709.81 385.64 709.44 385.26
  C 704.14 379.93 699.70 374.17 694.29 368.58
  Q 678.81 352.59 660.65 339.83
  C 650.85 332.94 636.87 325.29 624.99 324.56
  A 1.02 1.01 74.7 0 1 624.21 324.11
  Q 623.75 323.41 623.04 323.72
  Q 622.56 323.93 622.04 323.82
  Q 619.39 323.26 616.75 323.26
  Q 602.85 323.28 594.00 322.80
  Q 592.78 322.74 591.64 321.89
  Q 591.25 321.60 590.77 321.49
  C 581.82 319.54 573.58 309.17 569.53 301.67
  Q 563.50 290.53 559.16 278.64
  Q 556.87 272.39 554.08 265.97
  A 0.39 0.39 0.0 0 1 554.47 265.43
  Q 555.37 265.50 555.90 266.21
  Q 556.18 266.60 556.66 266.66
  C 561.50 267.32 566.60 268.08 571.48 267.56
  C 573.31 267.37 575.16 267.60 576.85 267.40
  Q 586.75 266.21 596.51 264.20
  C 601.29 263.21 606.65 263.36 611.79 262.15
  Q 612.23 262.04 612.65 262.18
  Q 617.79 263.80 623.14 263.31
  Q 623.70 263.25 624.11 263.64
  L 625.04 264.51
  Q 625.43 264.88 625.97 264.87
  L 627.28 264.86
  Q 628.89 264.84 627.36 264.32
  L 626.07 263.88
  Q 625.60 263.72 625.38 263.27
  C 624.41 261.28 622.51 260.80 621.24 259.49
  Q 615.75 253.82 609.58 248.94
  Q 602.88 243.62 599.47 240.41
  C 589.78 231.30 579.83 222.57 570.43 213.11
  C 565.40 208.05 559.80 203.14 555.15 197.77
  Q 550.71 192.64 553.55 196.21
  Q 555.00 198.05 553.44 196.31
  C 543.28 185.03 532.43 173.90 522.93 162.44
  Q 515.60 153.59 508.40 144.63
  Q 504.68 140.00 500.72 135.57
  Q 500.59 135.42 500.46 135.29
  Z
  M 153.4630 506.7694
  A 1.54 0.32 88.4 0 0 153.7399 505.2211
  A 1.54 0.32 88.4 0 0 153.3770 503.6906
  A 1.54 0.32 88.4 0 0 153.1001 505.2389
  A 1.54 0.32 88.4 0 0 153.4630 506.7694
  Z
  M 481.95 665.77
  Q 482.32 664.29 481.87 662.79
  Q 481.65 662.07 481.45 662.79
  Q 481.02 664.30 481.50 665.78
  Q 481.75 666.56 481.95 665.77
  Z"
/>
<path fill="#ffffff" d="
  M 257.06 736.48
  Q 256.99 736.50 256.94 736.54
  Q 256.85 736.62 256.81 736.53
  C 250.17 723.49 243.53 710.78 238.38 697.05
  Q 226.36 665.00 220.19 628.25
  C 219.51 624.18 219.40 620.43 218.62 616.94
  C 217.14 610.34 216.78 603.34 216.12 594.75
  Q 215.25 583.57 216.24 550.34
  C 216.34 546.84 217.27 541.87 217.34 537.57
  Q 217.38 534.72 217.84 532.47
  C 219.13 526.06 220.02 518.59 221.07 513.21
  Q 226.10 487.52 236.21 463.33
  Q 237.51 460.22 238.71 457.06
  C 240.99 451.02 243.94 445.74 246.88 439.27
  Q 250.44 431.45 256.22 423.01
  Q 256.49 422.61 256.46 422.14
  Q 256.44 421.67 256.78 421.60
  Q 257.05 421.54 257.19 421.32
  Q 263.05 412.28 269.18 403.43
  C 275.24 394.69 281.61 387.41 289.39 378.91
  Q 314.64 351.34 345.81 330.49
  C 346.69 329.90 347.30 328.90 348.82 328.59
  A 1.84 1.76 -71.0 0 0 349.67 328.15
  Q 351.29 326.66 355.36 324.36
  Q 362.97 320.05 367.19 317.84
  C 370.45 316.13 376.79 312.48 381.88 310.49
  Q 388.52 307.88 389.30 307.56
  Q 399.69 303.22 413.74 298.99
  Q 416.21 298.24 417.89 297.88
  C 421.26 297.15 424.15 295.96 427.45 295.56
  C 428.63 295.42 429.33 294.76 430.50 294.54
  Q 441.98 292.31 453.61 291.12
  Q 454.08 291.07 454.45 291.37
  Q 455.14 291.92 455.52 291.24
  Q 455.80 290.74 456.36 290.71
  C 472.75 289.80 489.79 289.19 506.14 290.44
  C 507.89 290.57 510.34 289.88 511.81 290.89
  A 0.41 0.41 0.0 0 1 511.66 291.63
  C 509.89 292.01 508.59 291.96 507.03 293.08
  Q 504.26 295.07 500.98 295.93
  C 498.57 296.57 496.80 297.97 494.28 298.46
  Q 493.74 298.57 493.62 299.10
  Q 493.55 299.41 493.19 299.33
  Q 492.70 299.20 492.26 299.45
  C 489.25 301.15 485.09 302.55 482.86 303.50
  Q 472.27 308.05 444.01 319.46
  Q 441.61 320.44 440.05 320.95
  Q 437.39 321.83 436.12 322.43
  C 432.39 324.17 428.03 325.47 424.68 326.94
  C 413.36 331.91 399.10 337.68 390.89 343.02
  C 388.89 344.33 385.83 346.67 383.62 347.37
  A 3.61 3.54 19.0 0 0 382.74 347.79
  C 373.59 353.82 363.14 360.10 355.64 366.39
  Q 349.91 371.18 344.07 375.81
  Q 338.59 380.16 321.53 398.75
  C 320.98 399.35 320.89 400.34 319.76 400.47
  A 0.20 0.19 -12.1 0 0 319.59 400.72
  Q 319.62 400.85 319.66 400.99
  Q 319.66 401.03 319.64 401.05
  Q 311.98 410.46 305.42 420.68
  Q 297.87 432.42 291.84 443.50
  A 0.20 0.04 -79.1 0 0 291.82 443.55
  Q 288.01 451.76 282.82 464.20
  Q 271.50 491.32 266.26 520.15
  Q 264.89 527.73 264.98 528.31
  Q 265.16 529.39 264.33 534.62
  C 263.48 539.89 263.61 545.33 263.24 550.69
  C 262.78 557.22 262.75 562.87 262.75 569.00
  C 262.75 574.81 263.41 581.73 263.66 588.15
  C 264.14 600.52 266.83 613.19 269.72 625.20
  C 270.43 628.17 270.92 630.99 271.84 634.24
  Q 273.46 639.99 275.07 645.76
  Q 275.29 646.58 276.33 648.52
  Q 277.04 649.83 277.17 651.40
  Q 277.21 651.90 277.54 652.27
  C 279.16 654.06 278.58 656.03 279.72 657.86
  C 280.94 659.80 281.06 661.68 281.97 663.67
  Q 286.97 674.64 292.30 685.46
  C 294.77 690.49 298.76 696.22 300.90 699.67
  Q 308.64 712.13 314.44 719.05
  C 320.05 725.75 325.47 732.58 331.83 738.53
  Q 336.29 742.70 340.81 746.80
  Q 355.60 760.20 372.53 770.72
  C 373.98 771.63 377.66 773.30 380.01 775.04
  Q 381.72 776.31 382.91 776.93
  C 390.97 781.15 399.33 785.71 407.25 789.22
  C 417.77 793.88 426.28 796.34 435.96 799.54
  C 451.17 804.57 466.01 806.98 479.12 808.67
  C 480.46 808.84 481.59 809.32 482.65 809.37
  C 499.86 810.17 517.71 810.77 534.70 809.22
  Q 548.08 807.99 561.33 805.68
  C 563.78 805.25 566.56 804.18 569.38 803.80
  Q 571.88 803.46 574.52 802.69
  C 576.79 802.02 579.42 801.83 581.47 801.29
  C 602.28 795.83 620.80 790.12 638.99 782.25
  Q 641.87 781.01 643.98 780.47
  A 0.48 0.48 0.0 0 0 644.35 780.00
  Q 644.34 779.87 644.34 779.75
  Q 644.34 779.49 644.59 779.43
  L 648.27 778.51
  A 0.29 0.29 0.0 0 0 648.43 778.06
  Q 648.32 777.90 648.43 777.75
  A 0.70 0.26 -63.7 0 1 648.75 777.45
  C 649.73 777.08 650.83 776.88 651.73 776.42
  Q 670.45 767.03 683.25 758.71
  Q 703.00 745.87 723.82 727.31
  Q 724.23 726.94 724.51 727.41
  Q 726.20 730.27 728.04 732.92
  C 735.33 743.43 745.56 746.40 757.76 746.26
  C 758.47 746.25 759.12 746.57 759.82 746.77
  Q 760.30 746.91 759.98 747.29
  Q 759.75 747.57 759.43 747.70
  Q 759.00 747.87 758.89 747.43
  Q 758.86 747.27 758.66 747.22
  A 0.17 0.17 0.0 0 0 758.44 747.38
  Q 758.43 748.26 758.20 748.50
  C 744.67 763.09 730.50 777.85 714.90 790.22
  Q 701.72 800.67 692.41 806.92
  Q 685.65 811.45 667.69 821.66
  Q 648.82 832.38 637.37 836.62
  C 630.64 839.11 624.07 841.99 617.29 844.36
  Q 613.10 845.82 608.95 847.38
  C 607.50 847.92 605.66 848.14 604.07 848.92
  Q 602.71 849.60 601.50 849.81
  C 597.35 850.53 593.50 851.85 589.31 852.43
  A 1.59 1.54 18.6 0 0 588.45 852.84
  C 587.24 853.99 583.83 854.11 581.03 854.45
  Q 580.58 854.51 580.46 854.96
  Q 580.42 855.11 580.38 855.25
  Q 580.37 855.30 580.32 855.31
  Q 571.31 857.06 562.29 858.70
  Q 551.87 860.61 541.32 861.61
  Q 541.01 861.64 538.19 861.59
  C 536.76 861.56 535.25 862.10 534.01 862.21
  Q 499.98 865.39 472.79 862.64
  Q 466.31 861.98 462.01 861.67
  C 456.52 861.28 451.41 860.30 446.06 859.66
  Q 443.58 859.37 440.02 858.59
  C 436.38 857.79 432.60 857.61 429.12 856.75
  Q 426.74 856.17 424.35 855.60
  C 423.42 855.38 422.24 855.54 421.17 854.78
  Q 420.76 854.48 420.26 854.44
  C 417.63 854.20 415.01 853.10 412.88 852.64
  C 410.16 852.06 408.14 851.65 405.14 850.56
  C 403.61 850.01 401.34 849.94 400.07 849.07
  Q 399.51 848.68 398.96 848.52
  C 385.80 844.80 374.50 840.20 361.82 834.25
  Q 344.93 826.31 335.96 820.05
  C 328.15 814.60 319.84 809.22 312.82 803.40
  C 300.16 792.91 291.29 783.48 279.60 770.00
  Q 268.66 757.38 257.35 736.69
  Q 257.22 736.45 257.06 736.48
  Z"
/>
<path fill="#ffffff" d="
  M 436.44 401.50
  L 436.67 400.96
  Q 436.88 400.49 437.30 400.19
  Q 444.27 395.24 448.99 394.16
  C 454.94 392.80 460.02 391.30 466.26 392.04
  C 472.32 392.77 472.39 399.52 469.32 403.29
  Q 466.78 406.40 461.80 411.55
  Q 442.02 431.97 434.42 441.24
  Q 427.77 449.36 425.98 452.23
  Q 424.24 455.00 423.57 456.15
  Q 419.92 462.36 416.52 468.71
  Q 413.61 474.13 411.30 480.11
  C 409.15 485.68 406.63 491.52 405.30 497.34
  Q 405.23 497.68 404.90 497.59
  Q 404.78 497.55 404.68 497.44
  Q 404.52 497.26 404.50 497.50
  C 404.12 501.61 402.51 506.13 401.78 509.12
  Q 400.43 514.66 399.31 520.25
  Q 399.22 520.68 398.94 521.00
  Q 398.66 521.32 398.59 521.73
  L 397.16 531.24
  A 1.11 1.11 0.0 0 1 396.96 531.73
  Q 396.70 532.09 396.64 532.53
  Q 394.89 546.15 393.56 559.82
  C 393.43 561.22 393.52 564.33 393.05 566.58
  Q 392.70 568.27 392.71 569.45
  Q 392.82 579.86 392.67 590.25
  Q 392.59 595.85 392.85 601.46
  C 392.92 602.81 392.44 606.13 392.96 608.38
  C 393.90 612.43 393.90 617.04 394.03 621.08
  Q 394.16 625.11 392.68 621.36
  Q 391.62 618.67 390.06 614.24
  Q 385.46 601.11 381.62 587.75
  Q 377.91 574.84 375.81 554.01
  Q 373.93 535.38 375.98 516.76
  Q 376.44 512.60 376.91 508.42
  C 377.69 501.48 379.33 494.69 380.89 487.93
  C 381.78 484.04 383.00 479.58 384.52 475.84
  C 385.17 474.27 385.33 472.63 385.96 471.12
  Q 388.95 464.01 391.93 456.90
  C 398.19 441.98 406.60 430.14 416.82 417.25
  Q 423.15 409.25 435.97 400.90
  A 0.10 0.09 -16.2 0 1 436.12 400.98
  L 436.09 401.41
  A 0.19 0.18 58.9 0 0 436.44 401.50
  Z"
/>
<path fill="#ffffff" d="
  M 821.18 532.57
  Q 821.78 524.54 822.16 516.39
  Q 822.29 513.62 823.63 516.04
  C 824.84 518.24 825.08 521.19 825.78 523.63
  Q 826.56 526.30 826.83 529.24
  C 827.16 532.88 828.21 536.67 828.59 539.97
  Q 829.34 546.49 830.26 553.00
  C 830.90 557.52 831.04 564.05 831.03 569.68
  Q 831.01 585.41 831.06 600.69
  Q 831.06 601.85 830.00 602.31
  L 807.65 611.92
  A 2.51 2.49 84.0 0 0 806.17 613.76
  Q 805.67 616.35 805.64 619.00
  Q 805.50 634.93 806.05 640.13
  C 806.54 644.82 812.72 646.40 816.16 644.03
  Q 817.37 643.20 819.47 639.67
  Q 821.75 635.84 824.50 632.19
  A 0.40 0.40 0.0 0 1 825.21 632.50
  C 824.63 635.74 823.42 638.51 822.57 641.65
  Q 821.55 645.34 820.01 649.23
  C 818.43 653.22 817.14 657.48 815.47 661.18
  C 812.43 667.94 809.59 674.14 805.32 680.50
  C 801.54 686.16 799.52 689.93 796.51 694.53
  C 794.04 698.29 792.49 701.90 790.45 705.72
  A 1.10 1.09 -52.2 0 1 788.68 705.95
  Q 784.43 701.29 778.09 703.30
  C 776.87 703.69 775.50 705.16 775.33 706.22
  Q 773.96 714.65 768.07 720.81
  C 765.19 723.83 758.71 727.40 755.66 723.10
  C 751.67 717.48 751.52 705.62 752.45 698.50
  Q 752.71 696.57 754.03 694.95
  Q 772.92 671.71 786.72 645.14
  C 787.35 643.92 788.84 642.47 789.19 640.56
  Q 789.28 640.08 789.61 639.72
  C 790.88 638.29 791.17 636.36 791.84 635.00
  Q 800.52 617.54 803.48 607.75
  Q 804.53 604.29 805.31 602.04
  C 812.90 580.21 817.95 557.93 820.52 535.74
  C 820.66 534.57 821.11 533.51 821.18 532.57
  Z"
/>
<path fill="#ffffff" d="
  M 611.69 637.58
  C 588.35 628.67 560.53 618.76 553.97 591.51
  Q 551.87 582.74 552.92 573.03
  C 555.63 548.18 572.16 532.89 595.51 526.53
  C 616.28 520.88 634.96 524.28 655.40 528.79
  C 659.76 529.75 664.02 529.95 668.48 530.18
  A 0.57 0.57 0.0 0 1 669.02 530.75
  L 668.99 562.22
  A 1.02 1.02 0.0 0 1 667.90 563.24
  L 667.55 563.21
  A 1.51 1.49 0.7 0 1 666.16 561.80
  C 665.16 543.85 651.45 537.74 635.77 535.63
  C 614.32 532.75 591.31 533.64 579.93 554.73
  C 574.89 564.09 572.99 576.59 576.44 587.20
  C 582.47 605.79 612.07 615.03 628.31 621.16
  C 652.76 630.38 677.00 640.72 685.23 667.75
  Q 688.60 678.83 686.60 693.26
  C 681.06 733.37 638.03 746.38 603.75 742.78
  Q 596.72 742.04 586.01 738.96
  C 577.18 736.42 567.79 732.94 558.69 731.83
  Q 557.94 731.74 557.94 730.98
  L 557.96 696.00
  A 1.13 1.13 0.0 0 1 559.14 694.87
  L 559.46 694.88
  A 1.47 1.45 0.9 0 1 560.85 696.30
  Q 561.00 701.95 562.72 706.92
  C 567.47 720.63 584.34 728.93 597.64 731.05
  C 613.07 733.52 630.32 732.86 643.27 724.68
  C 657.55 715.66 665.23 701.18 664.95 684.00
  C 664.52 656.63 632.49 645.52 611.69 637.58
  Z"
/>
<path fill="#ffffff" d="
  M 1099.17 663.10
  C 1101.76 661.78 1105.06 657.33 1107.40 655.22
  C 1124.94 639.44 1140.59 624.19 1151.03 614.54
  Q 1155.09 610.78 1151.39 607.29
  Q 1151.06 606.98 1150.93 606.67
  Q 1150.70 606.08 1150.82 605.87
  A 1.72 1.72 0.0 0 1 1152.30 605.00
  Q 1165.62 604.95 1178.75 605.07
  Q 1179.88 605.08 1180.12 605.50
  A 1.28 1.27 -23.4 0 1 1179.37 607.38
  C 1171.62 609.57 1165.90 615.44 1160.23 620.73
  Q 1134.77 644.47 1126.91 651.66
  Q 1123.56 654.74 1121.52 656.92
  Q 1121.16 657.31 1121.49 657.72
  Q 1145.75 688.15 1169.57 718.89
  C 1175.37 726.37 1182.75 734.33 1191.50 738.31
  A 1.09 1.07 8.8 0 1 1192.12 739.14
  Q 1192.40 741.06 1189.63 741.18
  C 1180.56 741.60 1168.32 742.17 1160.50 736.77
  Q 1151.71 730.70 1143.81 720.49
  Q 1125.08 696.28 1106.36 672.16
  A 1.31 1.31 0.0 0 0 1104.40 672.03
  L 1099.35 677.02
  A 2.32 2.30 -22.1 0 0 1098.66 678.64
  Q 1098.50 698.47 1098.68 718.00
  C 1098.74 725.40 1100.25 734.49 1107.59 738.02
  Q 1111.26 739.79 1107.41 741.13
  Q 1107.18 741.21 1105.00 741.18
  Q 1088.25 740.90 1071.50 741.14
  Q 1069.31 741.17 1068.97 741.07
  Q 1065.08 739.91 1068.69 738.06
  C 1076.81 733.88 1077.35 724.30 1077.35 715.50
  Q 1077.38 635.67 1077.37 555.84
  C 1077.37 548.69 1074.03 543.49 1067.52 540.60
  A 1.35 1.34 39.0 0 1 1067.27 538.29
  Q 1068.27 537.56 1069.25 537.25
  Q 1082.45 533.04 1097.75 528.33
  Q 1098.64 528.06 1098.64 528.99
  L 1098.62 662.76
  A 0.38 0.38 0.0 0 0 1099.17 663.10
  Z"
/>
<path fill="#ffffff" d="
  M 747.75 615.00
  A 1.09 1.09 0.0 0 0 746.66 616.09
  C 746.56 636.40 746.80 656.53 746.62 676.75
  Q 746.41 700.29 746.88 711.37
  C 747.22 719.48 749.60 729.90 759.27 730.25
  C 770.31 730.64 778.12 718.48 780.27 708.72
  A 1.15 1.15 0.0 0 1 781.80 707.90
  Q 782.84 708.28 782.87 709.50
  Q 783.19 720.09 782.96 730.69
  A 0.71 0.70 84.3 0 1 782.41 731.37
  C 781.06 731.68 780.11 731.97 779.00 732.90
  Q 766.02 743.81 748.50 740.24
  C 739.66 738.43 733.77 733.89 729.95 725.52
  C 725.98 716.83 725.91 708.03 725.55 698.58
  Q 725.38 693.96 725.38 690.67
  Q 725.37 653.44 725.37 616.12
  A 1.12 1.12 0.0 0 0 724.25 615.00
  L 707.25 615.00
  Q 707.00 615.00 707.01 614.75
  L 707.02 605.49
  A 0.49 0.49 0.0 0 1 707.51 605.00
  L 724.24 605.00
  A 1.13 1.13 0.0 0 0 725.37 603.88
  Q 725.38 590.16 725.40 576.75
  Q 725.41 570.15 723.90 565.24
  C 722.83 561.77 718.79 560.83 714.84 559.75
  Q 714.37 559.62 714.24 559.15
  Q 714.01 558.34 714.34 557.72
  Q 714.59 557.23 715.36 556.97
  Q 730.11 552.01 745.68 547.26
  Q 746.67 546.95 746.67 547.99
  L 746.62 603.69
  Q 746.61 605.01 747.94 605.01
  L 782.03 605.00
  Q 783.07 605.00 783.06 606.04
  L 783.03 613.86
  A 1.14 1.14 0.0 0 1 781.89 614.99
  L 747.75 615.00
  Z"
/>
<path fill="#ffffff" d="
  M 893.34 725.35
  A 0.48 0.48 0.0 0 0 892.52 725.02
  C 876.91 741.00 857.59 745.22 835.74 742.41
  C 821.77 740.62 809.45 732.61 805.80 718.24
  C 800.89 698.85 812.21 683.82 828.46 674.91
  C 847.06 664.71 869.33 658.97 892.90 652.81
  Q 893.38 652.68 893.37 652.18
  C 893.02 633.80 882.58 617.96 864.27 613.98
  C 839.69 608.63 824.73 618.85 813.45 639.37
  Q 812.51 641.08 811.20 639.64
  Q 811.12 639.54 811.07 638.25
  Q 810.68 627.75 810.86 617.44
  A 1.35 1.34 78.5 0 1 811.66 616.22
  Q 825.13 610.14 838.50 604.79
  Q 844.81 602.27 856.00 602.47
  C 871.99 602.74 883.93 603.22 896.43 611.83
  C 910.30 621.39 913.93 637.02 913.96 652.87
  Q 914.02 684.81 913.80 716.75
  C 913.75 724.59 915.27 735.52 924.03 738.07
  A 1.15 1.14 83.3 0 1 924.71 738.61
  L 925.15 739.42
  A 1.08 1.07 -14.3 0 1 924.20 741.01
  L 893.82 741.00
  A 0.44 0.44 0.0 0 1 893.38 740.57
  L 893.34 725.35
  Z
  M 828.56 718.45
  C 837.44 732.95 860.87 733.89 874.35 726.78
  C 881.14 723.20 888.24 717.18 892.75 710.69
  A 3.46 3.43 -27.7 0 0 893.37 708.72
  L 893.37 664.60
  Q 893.37 664.10 892.88 664.04
  Q 890.89 663.77 888.99 664.28
  C 869.46 669.43 846.61 675.39 832.08 690.56
  C 824.90 698.06 822.88 709.16 828.56 718.45
  Z"
/>
<path fill="#ffffff" d="
  M 987.93 620.72
  A 0.35 0.35 0.0 0 0 988.52 620.97
  C 992.79 616.73 997.30 611.46 1001.86 608.43
  C 1015.32 599.48 1030.72 601.88 1044.76 608.30
  A 0.29 0.29 0.0 0 1 1044.91 608.69
  L 1035.88 627.25
  Q 1035.63 627.77 1035.29 627.30
  Q 1031.58 622.08 1028.96 620.79
  Q 1018.21 615.50 1008.64 620.40
  Q 997.62 626.03 989.31 634.07
  C 988.37 634.99 988.01 636.34 988.01 637.75
  Q 987.99 678.25 988.01 718.75
  C 988.01 726.64 989.82 734.92 997.63 738.47
  A 1.21 1.21 0.0 0 1 997.70 740.64
  Q 996.66 741.19 994.75 741.16
  Q 977.25 740.85 959.75 741.22
  Q 957.61 741.27 956.42 740.63
  A 1.25 1.25 0.0 0 1 956.54 738.37
  C 966.52 734.21 966.81 722.53 966.85 713.50
  Q 967.04 672.50 966.95 631.51
  Q 966.92 618.63 955.26 614.21
  Q 954.77 614.02 954.75 613.49
  Q 954.72 612.37 955.98 611.98
  Q 971.42 607.22 987.49 602.53
  A 0.46 0.45 81.9 0 1 988.07 602.97
  L 987.93 620.72
  Z"
/>
<path fill="#ffffff" d="
  M 761.99 767.38
  L 762.04 772.68
  Q 762.04 773.28 762.65 773.37
  Q 765.74 773.81 768.41 772.45
  Q 768.96 772.17 769.03 772.78
  Q 769.18 774.15 768.83 775.45
  A 0.56 0.56 0.0 0 1 768.05 775.81
  Q 765.47 774.60 762.59 775.06
  Q 762.02 775.15 762.02 775.72
  L 761.96 783.02
  A 0.83 0.83 0.0 0 0 762.57 783.83
  C 764.99 784.49 768.97 784.16 770.28 781.64
  Q 770.79 780.64 770.86 781.76
  L 771.02 784.38
  Q 771.06 785.08 770.36 785.08
  L 758.81 785.03
  Q 758.29 785.03 758.43 784.53
  C 758.61 783.91 758.94 783.30 758.95 782.67
  C 759.04 777.34 759.63 770.69 758.52 765.54
  Q 758.38 764.93 759.01 764.94
  L 769.17 765.06
  Q 769.82 765.07 769.95 765.70
  Q 770.10 766.45 769.97 767.18
  Q 769.87 767.74 769.35 767.50
  Q 766.11 766.02 762.50 766.75
  Q 761.99 766.86 761.99 767.38
  Z"
/>
<circle fill="#ffffff" cx="806.06" cy="769.05" r="1.79"/>
<path fill="#ffffff" d="
  M 781.46 785.14
  C 780.62 785.03 779.93 785.49 779.20 785.49
  Q 775.61 785.49 774.40 783.93
  C 769.88 778.16 773.86 769.97 781.61 772.59
  Q 783.10 773.09 783.87 771.97
  Q 784.99 770.36 784.99 772.25
  L 785.00 790.47
  Q 785.00 790.87 785.27 791.16
  Q 785.39 791.29 785.51 791.43
  Q 785.74 791.70 785.39 791.69
  L 781.52 791.61
  A 0.36 0.36 0.0 0 1 781.21 791.09
  Q 782.51 788.53 781.95 785.60
  Q 781.87 785.19 781.46 785.14
  Z
  M 782.17 781.92
  L 781.79 775.33
  A 1.58 1.58 0.0 0 0 780.13 773.85
  L 779.10 773.90
  A 4.76 4.47 86.7 0 0 774.91 778.91
  L 774.92 779.15
  A 4.76 4.47 86.7 0 0 779.66 783.65
  L 780.69 783.59
  A 1.58 1.58 0.0 0 0 782.17 781.92
  Z"
/>
<path fill="#ffffff" d="
  M 804.70 783.67
  Q 805.48 778.68 804.54 774.00
  Q 804.22 772.45 805.76 772.08
  L 806.40 771.93
  Q 807.96 771.55 807.97 773.16
  L 807.99 783.26
  Q 807.99 783.80 808.32 784.23
  L 808.52 784.49
  Q 808.91 785.00 808.26 785.00
  L 804.73 784.99
  Q 803.99 784.99 804.38 784.36
  L 804.53 784.12
  Q 804.66 783.91 804.70 783.67
  Z"
/>
<path fill="#ffffff" d="
  M 795.03 783.85
  L 796.15 783.60
  A 2.44 2.44 0.0 0 0 798.06 781.13
  L 797.79 773.33
  Q 797.76 772.41 798.65 772.18
  L 799.44 771.98
  Q 800.38 771.73 800.41 772.70
  L 800.75 784.34
  Q 800.76 784.90 800.20 784.95
  C 795.79 785.30 789.64 787.13 789.21 780.26
  Q 788.98 776.54 788.66 773.63
  Q 788.52 772.30 789.85 772.11
  L 790.62 772.00
  Q 791.91 771.82 791.94 773.12
  L 792.08 781.53
  Q 792.13 784.50 795.03 783.85
  Z"
/>
<path fill="#ffffff" d="
  M 815.12 785.58
  Q 814.46 788.50 815.89 790.96
  A 0.43 0.43 0.0 0 1 815.53 791.60
  L 811.73 791.70
  Q 811.17 791.72 811.56 791.31
  Q 811.80 791.06 811.94 790.73
  A 1.13 1.11 57.0 0 0 812.03 790.29
  C 812.04 784.52 812.53 778.14 811.50 772.46
  Q 811.41 772.00 811.88 772.02
  Q 815.59 772.16 819.24 771.99
  C 825.33 771.71 827.68 784.21 818.50 785.72
  A 1.67 1.63 -40.0 0 1 817.70 785.66
  L 816.00 785.09
  Q 815.29 784.85 815.12 785.58
  Z
  M 818.8103 784.0269
  A 5.21 3.66 84.6 0 0 821.9638 778.4956
  A 5.21 3.66 84.6 0 0 817.8297 773.6531
  A 5.21 3.66 84.6 0 0 814.6762 779.1844
  A 5.21 3.66 84.6 0 0 818.8103 784.0269
  Z"
/>
<path fill="#ffffff" d="
  M 829.10 780.30
  C 831.73 785.04 835.16 785.08 838.54 781.14
  Q 838.87 780.76 839.00 781.24
  C 840.48 786.43 829.14 786.95 827.31 782.36
  C 824.97 776.47 828.08 770.77 835.16 772.15
  Q 837.81 772.67 838.59 775.25
  L 839.20 777.25
  Q 839.70 778.88 837.99 778.93
  L 829.76 779.15
  A 0.78 0.77 75.0 0 0 829.10 780.30
  Z
  M 829.27 777.47
  L 836.81 777.41
  A 0.12 0.12 0.0 0 0 836.93 777.29
  L 836.93 777.24
  A 3.77 3.43 -0.4 0 0 833.14 773.84
  L 832.90 773.84
  A 3.77 3.43 -0.4 0 0 829.15 777.30
  L 829.15 777.35
  A 0.12 0.12 0.0 0 0 829.27 777.47
  Z"
/>
</svg>
