<?xml version="1.0" encoding="UTF-8" standalone="no"?>
<!DOCTYPE svg PUBLIC "-//W3C//DTD SVG 1.1//EN" "http://www.w3.org/Graphics/SVG/1.1/DTD/svg11.dtd">
<svg xmlns="http://www.w3.org/2000/svg" version="1.1" viewBox="0.00 0.00 1440.00 1024.00">
<path fill="#000000" d="
  M 153.30 503.97
  Q 152.88 504.86 152.88 505.85
  A 0.30 0.29 -46.8 0 1 152.29 505.87
  C 152.06 502.05 153.42 498.24 153.57 495.02
  Q 153.87 488.63 154.27 482.25
  Q 154.31 481.59 154.56 480.97
  Q 154.74 480.53 154.62 480.06
  Q 154.28 478.69 155.06 477.48
  A 2.22 2.17 -27.2 0 0 155.40 476.46
  Q 155.86 470.56 156.69 464.71
  C 156.84 463.62 157.35 462.78 157.46 461.74
  Q 157.91 457.73 158.83 453.79
  Q 158.87 453.62 159.03 453.68
  Q 159.21 453.75 159.37 453.69
  A 0.21 0.20 38.3 0 0 159.32 453.29
  Q 159.16 453.27 159.01 453.22
  Q 158.95 453.20 158.96 453.14
  Q 161.40 441.12 164.41 429.24
  Q 164.58 428.56 164.91 427.96
  Q 165.16 427.51 165.22 427.00
  Q 165.57 423.88 166.63 420.93
  A 0.35 0.34 -77.8 0 1 166.96 420.71
  Q 167.11 420.71 167.26 420.72
  Q 167.49 420.73 167.46 420.50
  Q 167.44 420.28 167.27 420.13
  A 0.55 0.55 0.0 0 1 167.13 419.59
  Q 168.93 413.86 171.09 408.27
  Q 172.24 405.29 172.96 402.18
  C 173.87 398.22 175.91 395.21 176.99 391.41
  C 178.07 387.59 180.23 383.84 181.50 380.65
  C 183.30 376.16 185.70 372.66 187.21 368.91
  C 188.14 366.60 189.42 364.91 190.43 362.74
  Q 195.11 352.77 196.83 350.33
  C 197.81 348.94 200.33 343.69 200.86 343.38
  Q 201.26 343.15 201.39 342.70
  C 201.89 341.05 203.10 340.24 203.65 338.84
  C 203.98 338.00 204.12 337.22 204.67 336.48
  Q 208.96 330.64 212.86 324.53
  Q 213.21 323.97 213.93 323.21
  Q 214.53 322.59 214.99 321.85
  Q 218.88 315.76 223.43 310.15
  Q 233.48 297.73 243.67 285.43
  C 244.98 283.85 247.19 280.96 248.53 278.14
  C 249.93 275.21 251.56 273.28 252.46 269.49
  Q 252.59 268.93 253.15 268.85
  Q 253.42 268.81 253.59 268.56
  Q 253.99 267.95 253.28 268.05
  Q 253.01 268.09 252.75 268.01
  A 0.20 0.19 21.0 0 1 252.63 267.75
  Q 252.81 267.31 253.23 267.08
  A 0.86 0.85 79.6 0 0 253.69 266.41
  Q 254.43 260.14 253.83 250.12
  Q 253.70 248.02 252.55 247.38
  Q 252.14 247.15 252.14 246.69
  Q 252.12 244.84 250.76 243.63
  A 1.27 1.20 13.5 0 1 250.42 243.11
  Q 249.37 240.06 246.70 238.31
  A 1.00 1.00 0.0 0 1 246.73 236.62
  C 252.18 233.36 257.22 230.23 263.67 228.42
  Q 264.07 228.31 264.15 227.90
  Q 264.18 227.72 264.31 227.58
  Q 264.49 227.38 264.75 227.34
  C 268.59 226.73 271.66 224.97 275.51 224.66
  Q 275.98 224.62 276.32 224.30
  Q 277.30 223.36 279.50 223.13
  Q 282.89 222.78 286.30 222.54
  C 287.51 222.46 288.29 221.63 289.37 221.56
  C 300.50 220.80 311.83 219.97 323.01 220.49
  C 330.81 220.85 336.50 220.62 342.74 221.61
  Q 343.24 221.68 343.59 222.03
  C 344.98 223.38 346.78 222.81 347.01 220.91
  C 347.24 219.04 345.70 218.58 346.75 216.10
  A 0.56 0.56 0.0 0 0 346.78 215.73
  L 336.33 171.76
  Q 336.26 171.46 335.99 171.60
  Q 335.88 171.66 335.75 171.71
  Q 335.36 171.86 335.31 171.44
  L 334.89 168.02
  Q 334.81 167.35 335.48 167.26
  L 343.34 166.18
  Q 343.80 166.12 344.21 165.89
  Q 345.59 165.11 347.25 165.26
  Q 357.81 166.27 368.38 165.68
  Q 373.34 165.40 377.63 165.91
  Q 385.80 166.89 394.00 167.65
  C 395.12 167.75 395.82 168.50 397.04 168.58
  Q 401.35 168.87 405.56 169.75
  Q 406.04 169.86 406.38 170.22
  Q 406.71 170.57 406.99 170.58
  C 411.14 170.73 414.62 172.19 418.56 172.88
  Q 420.88 173.28 423.13 173.97
  Q 426.37 174.96 429.75 175.44
  Q 430.61 175.56 431.27 176.05
  Q 431.66 176.33 432.13 176.46
  C 438.63 178.23 445.59 180.98 452.35 181.00
  A 0.44 0.43 68.8 0 0 452.67 180.27
  Q 452.07 179.60 452.03 178.50
  Q 451.76 171.52 452.61 167.03
  C 454.11 159.06 454.02 150.58 454.35 142.50
  Q 454.39 141.51 455.26 141.18
  Q 455.58 141.06 455.66 140.72
  Q 455.88 139.72 454.87 139.66
  A 0.57 0.57 0.0 0 1 454.34 139.15
  Q 454.27 138.40 454.97 138.38
  Q 455.58 138.36 455.59 137.76
  Q 455.75 130.53 456.64 123.43
  Q 456.68 123.06 456.86 122.93
  Q 456.99 122.84 457.17 122.80
  Q 457.47 122.73 457.47 122.43
  Q 457.52 119.49 457.78 118.24
  Q 459.37 110.51 460.67 102.73
  A 1.53 1.47 72.6 0 1 461.05 101.97
  Q 461.29 101.70 461.32 101.57
  Q 463.66 90.01 466.52 78.57
  Q 466.64 78.10 466.98 77.76
  Q 467.22 77.52 467.24 77.19
  Q 467.28 76.36 467.30 76.26
  L 470.55 63.75
  A 9.69 0.50 -71.2 0 1 471.21 61.43
  Q 472.32 57.79 473.13 54.11
  C 473.73 51.44 475.49 49.17 474.94 45.51
  A 1.16 1.16 0.0 0 1 476.82 44.44
  Q 477.53 45.01 478.32 45.14
  A 0.76 0.75 2.0 0 1 478.96 45.82
  C 479.11 47.49 478.38 49.35 480.23 50.23
  Q 480.76 50.48 480.84 51.06
  L 481.31 54.40
  A 0.32 0.31 77.1 0 0 481.72 54.66
  Q 481.89 54.60 482.00 54.47
  A 0.33 0.33 0.0 0 1 482.52 54.53
  Q 482.69 54.81 482.46 55.09
  Q 482.20 55.43 482.39 55.82
  L 496.25 83.31
  Q 496.42 83.65 496.36 84.03
  Q 496.28 84.53 496.85 84.44
  Q 497.42 84.35 497.58 84.90
  Q 498.00 86.41 498.84 87.63
  C 500.91 90.61 502.28 93.97 504.37 96.97
  Q 506.22 99.62 507.80 102.24
  C 515.18 114.47 523.63 125.18 531.63 135.46
  Q 532.51 136.59 535.50 139.91
  C 537.36 141.98 538.77 144.56 540.45 146.45
  Q 547.56 154.44 554.93 162.17
  C 555.64 162.92 556.07 163.86 556.82 164.66
  Q 562.68 170.93 568.86 176.88
  Q 591.29 198.51 600.87 206.88
  C 609.02 214.00 614.82 219.48 621.41 224.85
  Q 624.28 227.20 627.06 229.68
  Q 638.79 240.15 650.73 250.38
  Q 650.89 250.52 651.08 250.42
  Q 651.25 250.32 651.48 250.44
  Q 651.73 250.57 651.74 250.85
  L 651.75 251.20
  Q 651.75 251.25 651.79 251.29
  Q 655.90 254.92 659.96 258.61
  C 660.70 259.28 661.89 259.95 662.58 261.09
  Q 662.72 261.33 662.99 261.34
  Q 663.12 261.35 663.26 261.34
  Q 663.30 261.34 663.33 261.37
  Q 666.54 264.57 669.99 267.52
  Q 670.39 267.86 670.61 268.35
  Q 670.99 269.20 671.76 269.64
  Q 672.21 269.90 672.45 270.35
  L 673.47 272.20
  Q 673.72 272.66 673.92 272.17
  Q 673.96 272.06 673.97 271.90
  Q 673.98 271.67 674.12 271.86
  Q 678.27 277.29 682.01 283.00
  C 682.70 284.06 683.08 285.56 683.85 286.75
  Q 684.40 287.59 684.63 288.20
  C 687.74 296.43 691.83 304.55 694.68 311.50
  Q 694.73 311.63 694.67 312.00
  A 1.34 1.33 33.4 0 0 694.85 312.86
  C 698.00 318.00 699.67 324.15 703.00 329.02
  Q 704.49 331.20 705.43 332.93
  Q 706.85 335.57 707.89 336.76
  Q 711.79 341.25 716.46 344.99
  C 738.02 362.20 759.84 379.02 781.75 395.76
  Q 783.70 397.24 785.06 398.17
  Q 787.35 399.73 788.35 400.57
  Q 794.18 405.47 800.04 410.33
  Q 800.36 410.60 800.51 410.98
  Q 800.66 411.36 801.02 411.37
  Q 801.51 411.39 801.87 411.73
  C 803.57 413.37 805.41 414.74 805.79 417.20
  Q 806.49 421.60 805.30 425.96
  Q 805.16 426.46 805.27 426.98
  Q 805.46 427.93 804.85 428.62
  A 1.65 1.64 68.4 0 0 804.45 429.55
  Q 804.24 432.29 803.57 434.25
  Q 803.46 434.57 803.12 434.83
  Q 802.72 435.12 802.53 435.58
  C 799.88 442.05 795.71 445.49 790.29 449.60
  Q 788.47 450.98 786.54 452.04
  C 776.52 457.59 765.65 461.40 754.66 464.52
  C 752.04 465.26 748.34 466.98 744.69 467.30
  A 1.11 1.10 17.9 0 0 743.96 467.67
  Q 743.07 468.63 741.79 468.49
  Q 741.26 468.43 740.78 468.65
  Q 739.54 469.20 738.21 469.30
  A 1.76 1.75 -68.4 0 0 737.18 469.75
  Q 735.26 471.50 732.50 471.18
  A 1.24 1.22 -56.3 0 0 731.73 471.34
  Q 728.47 473.20 724.70 473.33
  Q 724.16 473.35 723.72 474.04
  Q 723.45 474.46 722.96 474.58
  Q 716.63 476.14 714.02 477.52
  C 709.94 479.67 702.43 483.87 698.23 482.32
  C 695.32 481.24 692.45 480.92 689.76 479.46
  Q 685.25 477.02 680.69 474.69
  C 678.56 473.61 677.03 471.81 674.77 470.66
  A 0.64 0.63 16.6 0 1 674.42 470.02
  Q 674.43 469.88 674.46 469.72
  Q 674.47 469.65 674.40 469.62
  L 672.01 468.67
  Q 671.51 468.47 671.42 467.93
  Q 671.34 467.43 670.73 467.38
  Q 670.25 467.35 669.86 467.07
  Q 663.49 462.55 651.02 454.51
  Q 645.38 450.87 642.00 449.28
  Q 635.52 446.24 629.21 442.85
  Q 620.75 438.31 611.63 435.21
  Q 604.69 432.85 597.71 430.61
  C 596.78 430.31 596.01 430.61 594.93 430.07
  C 592.03 428.63 589.50 428.92 586.59 428.06
  C 582.54 426.86 578.23 426.82 574.07 426.18
  C 566.35 425.01 560.41 424.66 553.25 425.35
  C 551.45 425.52 549.94 426.34 548.22 426.45
  C 543.89 426.72 539.73 426.91 535.84 428.84
  Q 526.49 433.49 520.67 442.38
  A 0.88 0.80 -31.7 0 0 520.53 442.87
  Q 520.56 443.42 520.09 443.64
  A 0.83 0.81 -88.6 0 0 519.70 444.02
  Q 515.05 453.74 514.08 458.03
  Q 512.99 462.83 511.90 467.63
  C 511.38 469.91 511.48 471.96 511.55 474.25
  Q 511.58 475.13 510.65 475.47
  Q 510.27 475.60 510.42 475.98
  L 510.58 476.37
  Q 510.72 476.72 510.69 477.09
  Q 509.41 492.29 510.63 507.50
  C 510.83 510.07 511.61 512.29 511.59 514.85
  C 511.54 522.63 513.38 529.82 514.16 537.48
  C 514.42 540.04 515.77 543.75 515.73 546.97
  Q 515.70 549.39 516.09 550.95
  Q 517.13 555.19 517.87 559.51
  C 517.91 559.73 517.83 560.07 517.72 560.24
  Q 517.63 560.39 517.79 560.46
  Q 517.92 560.52 518.05 560.59
  Q 518.26 560.69 518.29 560.91
  C 519.42 568.60 521.60 576.17 523.24 583.76
  C 523.73 586.02 525.14 589.36 525.26 592.77
  Q 525.28 593.53 526.04 594.06
  Q 526.45 594.35 526.54 594.84
  Q 526.91 597.11 527.22 599.37
  C 527.61 602.29 529.35 604.62 529.19 608.01
  Q 529.17 608.53 529.64 608.75
  Q 530.62 609.22 530.71 609.99
  Q 531.01 612.68 531.71 614.72
  C 532.80 617.87 533.06 620.29 533.92 623.15
  Q 536.15 630.58 538.53 637.95
  C 541.22 646.25 544.28 654.29 546.49 662.77
  Q 546.62 663.29 546.99 663.66
  Q 548.30 664.99 547.78 666.77
  A 0.53 0.53 0.0 0 1 546.96 667.05
  Q 539.05 661.36 530.62 656.12
  Q 528.79 654.97 526.70 652.79
  A 2.06 2.04 75.6 0 0 525.80 652.25
  Q 524.75 651.97 524.16 651.04
  Q 523.89 650.62 523.42 650.47
  C 521.60 649.90 520.04 647.85 518.50 646.72
  C 513.64 643.17 509.00 639.34 504.16 635.78
  Q 503.86 635.56 496.65 629.86
  Q 492.83 626.84 488.55 624.43
  Q 488.12 624.18 487.89 623.73
  Q 487.42 622.82 486.43 622.61
  Q 485.86 622.49 485.42 622.11
  L 482.47 619.55
  Q 481.75 618.93 480.88 619.29
  L 479.76 619.76
  Q 478.82 620.15 479.80 620.41
  Q 481.05 620.74 481.03 622.00
  C 480.78 634.18 480.68 646.54 482.43 658.62
  Q 483.43 665.57 482.92 669.00
  Q 482.49 671.90 482.67 673.83
  Q 482.97 676.86 482.97 676.94
  C 483.00 694.62 482.54 712.38 484.62 729.98
  C 485.05 733.67 484.28 737.55 484.47 740.80
  Q 485.01 749.84 486.43 758.77
  Q 486.70 760.47 486.56 762.74
  C 486.34 766.64 487.28 769.79 488.39 774.65
  C 488.67 775.87 488.57 776.95 488.23 778.07
  A 0.75 0.75 0.0 0 1 487.07 778.46
  C 483.85 776.11 478.66 777.87 474.98 775.78
  C 472.78 774.52 469.63 775.28 468.08 773.97
  Q 467.72 773.67 467.35 773.58
  Q 461.94 772.17 456.65 770.35
  Q 456.11 770.16 456.66 769.98
  Q 456.99 769.87 457.36 769.97
  Q 458.07 770.15 457.66 769.54
  Q 457.43 769.21 457.00 769.30
  C 453.50 770.03 444.53 765.17 441.28 763.41
  C 437.74 761.49 434.69 760.05 430.64 757.77
  C 427.10 755.78 423.63 754.41 420.07 751.43
  C 418.82 750.39 417.40 749.99 416.29 749.22
  C 412.80 746.79 408.72 743.24 404.98 741.44
  Q 404.59 741.25 404.36 740.87
  Q 404.11 740.45 403.71 740.16
  Q 397.12 735.34 391.04 729.91
  C 383.65 723.31 377.31 717.68 371.30 710.75
  C 368.27 707.25 364.86 703.82 362.15 700.08
  C 361.42 699.07 360.50 698.29 359.83 697.48
  Q 347.47 682.69 339.37 667.15
  Q 335.82 660.34 329.96 647.42
  C 329.32 646.01 328.95 644.04 328.23 642.44
  Q 327.68 641.23 327.47 640.47
  Q 325.96 635.16 324.48 629.85
  C 323.35 625.79 323.32 621.09 322.11 616.69
  Q 321.97 616.17 322.31 615.75
  Q 322.53 615.48 322.20 615.37
  Q 321.69 615.20 321.54 614.68
  C 320.69 611.72 322.44 610.13 321.24 607.22
  Q 320.98 606.59 321.57 606.26
  L 321.87 606.09
  A 0.43 0.42 -25.8 0 1 322.48 606.30
  Q 323.98 610.30 326.48 613.76
  Q 326.77 614.16 326.84 614.65
  C 327.09 616.33 328.31 617.28 328.90 618.33
  Q 338.31 635.03 342.67 640.99
  Q 345.52 644.89 347.07 647.14
  Q 348.24 648.84 350.45 651.42
  C 352.05 653.29 353.34 655.60 354.76 657.30
  C 364.25 668.68 372.38 676.51 381.95 685.51
  Q 388.94 692.08 392.14 694.11
  C 394.24 695.44 395.86 696.98 397.79 698.04
  Q 399.34 698.88 400.75 699.95
  C 403.44 701.97 406.80 704.29 409.73 705.86
  Q 412.18 707.16 414.56 708.64
  Q 414.78 708.78 414.61 708.98
  L 414.39 709.22
  Q 414.28 709.34 414.41 709.44
  Q 414.67 709.64 414.91 709.53
  Q 415.31 709.35 415.70 709.57
  Q 418.15 710.95 420.64 712.23
  Q 421.82 712.84 425.57 714.19
  Q 428.39 715.20 430.89 716.90
  Q 431.28 717.18 431.76 717.25
  Q 435.27 717.78 439.78 719.70
  Q 441.59 720.47 442.73 718.81
  Q 443.00 718.42 443.00 717.95
  Q 443.00 700.81 443.01 683.67
  C 443.01 681.50 444.42 679.59 443.12 677.01
  A 1.61 1.58 -53.9 0 1 442.98 676.06
  C 443.34 673.75 442.41 670.66 443.70 668.77
  A 1.59 1.56 -28.2 0 0 443.96 667.94
  C 444.03 664.85 443.98 662.64 444.48 659.06
  Q 444.79 656.80 444.52 654.00
  Q 443.29 641.48 445.20 627.32
  C 445.48 625.24 445.00 622.76 445.27 621.00
  Q 446.65 611.94 446.46 609.25
  C 445.77 599.73 446.96 591.58 447.41 584.25
  C 447.86 576.69 448.95 568.80 448.22 561.25
  Q 448.11 560.13 449.03 559.07
  Q 449.36 558.68 449.30 558.18
  Q 449.00 555.76 450.69 554.00
  Q 451.17 553.50 451.47 554.12
  Q 452.08 555.40 453.19 556.29
  A 1.38 1.37 16.1 0 1 453.71 557.23
  C 453.93 559.28 455.42 560.25 456.27 561.66
  Q 457.57 563.79 459.95 566.52
  Q 468.99 576.86 478.23 583.83
  Q 478.35 583.92 478.39 584.06
  L 478.52 584.49
  Q 478.55 584.59 478.63 584.64
  C 482.61 587.75 486.56 590.43 490.13 594.09
  A 1.13 1.13 0.0 0 0 492.07 593.30
  Q 492.07 592.36 492.71 591.85
  Q 493.35 591.34 492.72 590.82
  L 491.71 590.00
  Q 491.27 589.64 491.24 589.08
  Q 491.06 586.03 489.68 580.26
  Q 488.77 576.46 486.35 562.18
  C 486.19 561.24 485.67 560.21 485.56 558.75
  C 485.18 553.98 483.45 546.76 482.93 541.26
  Q 482.67 538.52 482.18 536.29
  C 480.94 530.58 480.79 524.68 480.47 517.91
  Q 480.45 517.45 480.07 517.17
  Q 479.45 516.73 479.46 516.00
  C 479.47 512.71 479.05 509.27 479.03 506.59
  C 478.93 488.56 478.52 474.97 479.56 462.91
  Q 479.60 462.43 480.00 462.15
  Q 480.29 461.96 480.47 461.66
  Q 480.60 461.44 480.59 461.07
  Q 480.48 456.37 481.60 451.81
  Q 481.72 451.34 481.59 450.87
  Q 481.40 450.14 481.85 449.63
  Q 482.19 449.25 482.30 448.75
  Q 483.79 442.04 485.88 435.49
  Q 485.92 435.37 486.01 435.32
  Q 486.05 435.29 486.11 435.27
  Q 486.23 435.21 486.26 435.09
  C 488.20 428.51 490.84 424.99 493.37 419.73
  Q 493.59 419.27 494.00 418.98
  Q 494.42 418.68 494.44 418.16
  Q 494.47 417.67 494.72 417.25
  Q 497.22 413.10 500.52 409.54
  A 0.60 0.55 13.4 0 1 500.82 409.37
  Q 501.04 409.32 501.16 409.16
  C 503.81 405.59 507.62 403.47 510.71 400.34
  Q 511.07 399.97 511.57 399.87
  C 512.82 399.63 513.08 398.84 513.86 398.35
  Q 516.89 396.47 520.30 395.42
  Q 520.73 395.28 521.00 394.93
  Q 521.10 394.79 521.21 394.68
  Q 521.31 394.57 521.45 394.52
  Q 523.64 393.84 525.79 393.08
  A 0.32 0.29 -31.3 0 1 526.11 393.14
  L 526.36 393.38
  Q 526.39 393.41 526.40 393.37
  Q 526.73 392.14 527.86 392.39
  Q 528.35 392.50 528.79 392.27
  Q 531.78 390.73 535.06 390.41
  C 543.17 389.64 550.91 387.98 559.12 388.53
  Q 583.47 390.16 607.02 396.69
  C 609.32 397.33 614.63 402.53 616.23 403.86
  Q 627.11 412.89 631.75 415.50
  Q 638.52 419.30 645.09 423.46
  Q 646.03 424.05 647.64 424.67
  Q 648.98 425.19 650.22 425.94
  Q 651.89 426.96 653.60 427.95
  C 654.63 428.54 656.34 428.91 657.54 429.72
  Q 658.54 430.39 659.03 430.61
  Q 665.01 433.27 677.76 437.97
  Q 679.37 438.56 680.13 438.52
  Q 680.45 438.50 680.65 438.75
  L 680.86 439.01
  Q 681.04 439.24 681.31 439.33
  C 684.12 440.33 687.09 440.55 689.84 441.31
  Q 694.00 442.47 698.35 442.51
  Q 698.89 442.52 699.10 443.03
  L 699.20 443.29
  Q 699.32 443.59 699.64 443.55
  Q 701.36 443.30 702.70 442.30
  A 0.17 0.17 0.0 0 1 702.97 442.47
  Q 702.94 442.63 702.91 442.80
  A 0.24 0.24 0.0 0 0 703.28 443.04
  L 703.53 442.87
  Q 703.92 442.61 703.70 442.20
  Q 702.56 439.98 703.44 437.64
  Q 703.64 437.12 703.08 437.08
  Q 702.78 437.06 702.56 436.86
  Q 702.15 436.49 702.25 435.94
  C 703.20 430.84 701.19 427.15 700.30 422.74
  Q 699.35 418.09 697.25 413.79
  Q 697.04 413.35 696.64 413.08
  Q 696.16 412.74 696.35 412.08
  Q 696.48 411.62 696.18 411.25
  C 695.08 409.83 694.95 408.18 693.97 406.86
  Q 688.56 399.65 681.80 393.70
  C 681.00 393.00 680.73 391.99 679.30 391.84
  A 0.22 0.21 -78.3 0 1 679.12 391.55
  L 679.20 391.29
  Q 679.22 391.25 679.26 391.26
  L 680.06 391.48
  Q 680.50 391.60 680.90 391.40
  Q 685.92 388.92 693.74 388.00
  Q 702.85 386.93 706.97 386.88
  Q 707.55 386.87 707.94 387.30
  Q 708.31 387.71 708.79 387.94
  A 0.42 0.42 0.0 0 0 709.35 387.38
  Q 708.93 386.49 709.62 385.87
  A 0.47 0.46 32.4 0 0 709.44 385.08
  C 708.11 384.68 707.98 383.68 707.23 382.96
  Q 704.55 380.38 702.32 377.45
  Q 700.87 375.53 698.45 373.21
  C 696.53 371.37 695.20 369.19 693.27 367.47
  C 690.61 365.10 688.22 362.26 685.67 360.07
  C 680.11 355.30 674.34 350.01 668.95 345.82
  C 657.83 337.19 648.04 331.44 634.86 326.48
  Q 631.99 325.40 628.98 324.96
  C 626.87 324.66 623.92 324.66 621.98 323.94
  Q 621.49 323.76 620.99 323.72
  C 611.80 323.13 602.65 323.48 593.50 322.71
  Q 592.56 322.63 591.93 322.01
  Q 591.58 321.68 591.11 321.57
  C 584.58 320.09 580.77 315.89 576.30 311.29
  C 568.07 302.82 564.07 290.77 559.08 278.64
  Q 557.97 275.95 557.54 273.77
  Q 557.44 273.29 557.05 273.00
  C 555.98 272.22 555.85 270.23 555.67 269.05
  Q 555.59 268.52 555.15 268.22
  Q 553.94 267.40 554.02 265.80
  A 0.62 0.62 0.0 0 1 554.69 265.22
  Q 555.56 265.30 555.81 266.12
  Q 555.96 266.60 556.46 266.64
  C 561.29 267.07 566.15 267.87 570.79 267.69
  Q 578.45 267.40 586.00 266.05
  Q 589.83 265.37 593.67 264.76
  Q 594.08 264.69 598.25 263.76
  C 601.40 263.05 604.59 263.55 607.49 262.98
  C 609.57 262.56 611.36 261.94 613.51 262.37
  Q 615.52 262.77 617.52 263.21
  C 619.36 263.62 620.70 263.29 622.49 263.01
  Q 623.51 262.85 623.88 263.61
  Q 624.09 264.03 623.61 264.05
  Q 623.38 264.05 623.24 264.30
  A 0.31 0.31 0.0 0 0 623.37 264.73
  Q 623.74 264.92 624.15 264.30
  Q 624.33 264.03 624.62 264.17
  Q 624.84 264.28 624.96 264.50
  Q 625.18 264.91 625.64 264.91
  L 628.22 264.86
  Q 629.10 264.84 628.26 264.59
  L 625.73 263.84
  Q 625.22 263.69 625.07 263.18
  Q 624.57 261.45 622.81 260.92
  A 2.05 1.99 -12.2 0 1 621.91 260.36
  Q 615.83 253.74 608.74 248.29
  Q 603.31 244.12 599.96 240.94
  C 595.19 236.44 588.74 230.68 582.15 224.37
  Q 569.52 212.25 557.24 199.76
  Q 555.17 197.66 553.13 195.52
  C 552.27 194.62 550.15 193.17 549.06 191.68
  Q 548.04 190.29 547.69 189.89
  C 539.35 180.74 530.55 171.54 522.84 162.35
  Q 514.21 152.07 505.74 141.66
  C 504.61 140.26 502.80 137.43 500.98 135.85
  Q 497.76 133.05 498.19 137.29
  C 498.45 139.89 496.60 143.66 496.24 146.36
  Q 495.75 150.12 495.23 153.85
  C 494.46 159.34 494.00 164.73 493.55 170.25
  Q 493.47 171.22 492.83 171.65
  Q 492.52 171.85 492.68 172.18
  Q 492.80 172.42 492.88 172.66
  Q 493.01 173.00 492.97 173.34
  Q 492.05 182.53 491.59 191.75
  C 491.43 195.06 490.53 199.14 490.63 203.10
  C 490.82 210.89 491.07 218.85 490.52 226.62
  Q 490.28 229.99 491.76 232.60
  Q 492.90 234.60 490.87 233.52
  C 483.84 229.78 476.66 224.79 468.82 222.48
  A 0.38 0.38 0.0 0 1 468.61 221.91
  Q 468.70 221.76 468.68 221.58
  A 0.25 0.24 -3.6 0 0 468.42 221.36
  Q 465.83 221.45 463.73 220.29
  C 460.72 218.61 456.89 217.06 452.93 216.30
  A 1.54 1.47 -17.5 0 1 452.20 215.94
  Q 451.95 215.72 451.83 215.68
  Q 439.92 211.66 427.76 208.51
  Q 427.25 208.38 426.89 207.98
  Q 426.47 207.51 425.71 207.75
  Q 425.21 207.91 424.70 207.76
  Q 420.65 206.59 416.53 205.82
  Q 415.00 205.53 410.08 204.29
  C 407.14 203.55 404.17 203.42 401.34 202.79
  Q 396.89 201.79 392.36 201.50
  Q 389.47 201.32 385.50 200.55
  Q 380.98 199.68 376.33 200.05
  Q 375.48 200.12 375.13 200.55
  Q 374.59 201.20 375.12 202.12
  Q 375.34 202.52 375.80 202.49
  L 376.45 202.45
  A 0.56 0.56 0.0 0 1 377.04 203.10
  Q 376.72 205.10 378.21 206.32
  Q 378.62 206.66 378.83 207.15
  Q 380.23 210.54 381.84 213.80
  C 386.31 222.81 385.29 236.63 384.44 246.40
  Q 384.39 246.97 384.06 247.48
  C 383.00 249.08 382.99 251.02 382.78 252.80
  Q 382.65 253.83 381.62 253.97
  C 377.92 254.48 375.25 252.12 371.76 251.69
  Q 368.21 251.25 366.33 250.79
  Q 362.96 249.96 359.47 249.82
  C 356.52 249.70 354.31 248.45 351.61 248.31
  C 343.39 247.87 334.64 246.45 327.11 246.20
  Q 307.84 245.56 291.04 246.34
  Q 290.05 246.38 289.00 247.16
  Q 288.66 247.41 288.24 247.46
  L 282.98 248.07
  A 1.08 1.08 0.0 0 0 282.20 249.75
  Q 283.17 251.17 284.03 252.14
  C 285.98 254.35 288.39 259.76 288.94 262.61
  Q 292.30 279.86 285.79 295.95
  Q 284.69 298.68 282.41 301.62
  C 280.60 303.95 278.93 306.41 276.77 308.43
  Q 271.92 312.94 267.15 317.54
  Q 262.49 322.05 257.97 327.07
  Q 249.46 336.53 241.20 346.20
  Q 239.45 348.25 237.71 350.31
  Q 236.21 352.10 234.47 354.60
  Q 231.94 358.25 229.16 361.71
  C 227.48 363.81 226.22 366.47 224.43 368.69
  C 223.30 370.10 222.79 371.78 221.38 373.37
  C 217.56 377.66 214.13 384.95 210.86 390.52
  C 208.43 394.67 205.94 400.26 202.94 404.87
  C 202.04 406.24 202.19 407.54 201.74 409.09
  Q 201.59 409.59 201.07 409.52
  Q 200.92 409.50 200.78 409.49
  Q 200.55 409.48 200.52 409.69
  Q 199.70 414.31 196.75 418.00
  A 1.72 1.70 67.3 0 0 196.36 418.97
  Q 196.19 421.48 194.75 423.49
  Q 194.43 423.94 194.32 424.47
  C 193.73 427.33 191.99 430.47 190.77 433.27
  Q 190.57 433.70 190.69 434.16
  Q 190.78 434.52 190.72 434.69
  Q 185.16 450.19 181.44 466.22
  Q 180.96 468.29 180.56 471.86
  Q 180.50 472.37 180.14 472.74
  L 179.96 472.94
  Q 179.62 473.29 179.55 473.77
  C 179.19 476.23 178.96 481.40 177.83 483.41
  Q 177.60 483.83 177.56 484.31
  C 177.23 487.75 177.05 493.56 175.80 496.67
  Q 175.61 497.13 175.57 497.63
  Q 174.94 505.44 174.33 513.25
  C 174.24 514.44 173.62 515.35 173.56 516.46
  Q 172.42 535.74 173.42 555.02
  Q 173.48 556.08 174.30 558.78
  C 174.85 560.59 174.53 562.57 174.68 564.07
  Q 175.26 570.04 175.44 576.03
  Q 175.45 576.44 175.75 576.79
  Q 175.84 576.90 175.97 576.88
  Q 176.23 576.85 176.26 577.10
  Q 177.04 583.21 177.54 589.35
  C 177.59 589.99 178.02 590.26 178.12 590.88
  Q 179.53 600.28 181.62 609.56
  Q 181.64 609.67 182.33 611.29
  C 182.67 612.10 182.44 613.06 182.67 613.89
  Q 184.12 619.04 185.22 624.26
  C 185.53 625.70 187.33 627.75 186.50 629.69
  Q 186.32 630.11 186.43 630.32
  Q 186.56 630.58 186.92 630.61
  Q 187.32 630.64 187.42 631.03
  L 188.84 636.44
  Q 188.95 636.88 188.69 637.24
  Q 188.44 637.58 188.84 637.80
  Q 189.27 638.05 189.42 638.52
  Q 192.26 647.69 195.86 656.57
  C 196.20 657.42 196.18 658.84 196.73 659.81
  Q 197.22 660.66 197.35 661.01
  Q 198.86 665.28 200.30 669.57
  C 200.82 671.13 202.09 672.31 202.39 674.20
  Q 202.47 674.68 202.85 674.99
  Q 203.32 675.38 203.48 676.01
  Q 204.72 680.81 206.91 685.24
  Q 208.96 689.42 210.69 693.77
  Q 211.00 694.55 210.85 695.31
  A 0.36 0.36 0.0 0 1 210.16 695.37
  L 209.68 694.17
  Q 209.51 693.74 209.06 693.66
  Q 207.78 693.43 207.89 691.93
  Q 207.92 691.45 207.46 691.31
  Q 207.27 691.26 207.10 691.29
  Q 206.48 691.37 206.24 690.79
  Q 205.86 689.85 205.86 688.82
  Q 205.86 688.09 205.22 688.45
  L 204.89 688.64
  A 0.43 0.43 0.0 0 1 204.29 688.45
  Q 203.70 687.24 202.57 686.49
  A 1.07 1.05 13.5 0 1 202.10 685.74
  C 201.90 684.22 200.89 683.89 200.29 682.87
  Q 198.38 679.62 196.31 676.47
  C 194.56 673.78 192.35 669.42 189.99 666.15
  C 186.84 661.79 184.15 656.07 181.83 651.13
  C 178.70 644.45 175.26 638.17 172.27 630.19
  C 168.82 620.97 165.95 610.39 162.87 600.48
  C 162.10 597.97 161.84 595.10 161.12 592.43
  Q 159.74 587.30 157.34 573.00
  Q 155.69 563.15 155.54 559.99
  C 155.50 558.99 154.77 558.02 154.66 556.96
  Q 153.81 548.76 153.77 540.50
  C 153.76 538.56 151.61 533.51 152.38 531.44
  Q 152.66 530.71 152.94 531.44
  Q 153.09 531.83 153.10 532.29
  Q 153.12 532.95 153.49 532.40
  Q 154.03 531.59 153.78 530.99
  C 150.90 524.13 151.72 514.02 152.80 507.06
  Q 152.82 506.88 152.99 506.96
  Q 153.12 507.02 153.26 507.07
  Q 153.44 507.13 153.47 506.95
  Q 153.73 505.46 153.40 503.98
  Q 153.36 503.85 153.30 503.97
  Z
  M 453.62 169.41
  A 0.26 0.26 0.0 0 0 453.36 169.15
  L 453.12 169.15
  A 0.26 0.26 0.0 0 0 452.86 169.41
  L 452.86 179.63
  A 0.26 0.26 0.0 0 0 453.12 179.89
  L 453.36 179.89
  A 0.26 0.26 0.0 0 0 453.62 179.63
  L 453.62 169.41
  Z
  M 481.6300 665.6200
  A 1.41 0.32 90.0 0 0 481.9500 664.2100
  A 1.41 0.32 90.0 0 0 481.6300 662.8000
  A 1.41 0.32 90.0 0 0 481.3100 664.2100
  A 1.41 0.32 90.0 0 0 481.6300 665.6200
  Z"
/>
<path fill="#000000" d="
  M 390.74 342.82
  Q 391.07 343.61 390.14 343.89
  C 388.52 344.38 388.30 344.90 387.15 345.54
  Q 367.37 356.59 356.98 365.30
  Q 352.70 368.89 349.97 371.08
  Q 345.24 374.87 343.05 376.96
  C 335.73 383.91 327.06 391.99 319.92 400.66
  Q 312.36 409.85 306.06 419.94
  C 305.55 420.76 304.13 421.65 303.86 423.25
  Q 303.78 423.74 303.49 424.14
  Q 299.40 429.77 296.19 435.94
  C 295.43 437.41 293.82 439.09 293.35 441.20
  Q 293.06 442.50 292.87 441.37
  Q 292.84 441.21 292.69 441.09
  A 0.08 0.08 0.0 0 0 292.57 441.11
  Q 292.19 441.71 292.36 442.47
  A 1.02 1.02 0.0 0 1 292.24 443.24
  C 290.08 446.87 288.90 450.69 287.02 454.40
  C 285.70 457.01 284.82 459.42 283.42 462.44
  Q 282.75 463.87 281.77 466.25
  Q 280.05 470.42 278.55 474.67
  Q 278.39 475.13 278.43 475.62
  Q 278.46 476.18 278.09 476.61
  Q 277.83 476.92 277.70 477.31
  Q 276.06 482.24 274.30 487.13
  C 273.48 489.40 273.12 492.56 272.14 495.19
  Q 271.35 497.30 271.09 498.38
  Q 268.36 509.56 266.20 520.86
  Q 266.00 521.89 265.85 522.94
  Q 265.08 528.42 264.42 533.91
  Q 263.95 537.83 263.68 544.62
  C 263.50 549.49 262.90 554.51 262.87 559.13
  Q 262.83 564.18 262.82 569.23
  Q 262.81 573.77 263.25 579.74
  C 263.55 583.71 264.15 587.76 263.80 591.75
  Q 263.72 592.59 263.83 593.24
  Q 265.49 603.50 267.11 613.77
  C 267.71 617.61 268.74 622.34 270.00 626.24
  C 270.98 629.29 271.16 632.16 272.26 635.35
  Q 272.81 636.94 273.11 638.61
  C 273.64 641.55 274.94 643.99 275.35 646.99
  Q 275.42 647.48 275.78 647.82
  C 277.51 649.46 276.55 651.58 277.36 652.51
  Q 277.59 652.78 277.96 652.84
  A 0.87 0.85 0.1 0 1 278.65 653.52
  L 279.34 656.89
  Q 279.42 657.32 279.72 657.64
  Q 280.85 658.89 281.16 660.53
  C 282.00 665.05 284.67 669.58 286.73 673.66
  C 289.31 678.77 292.50 686.58 296.29 692.50
  Q 298.78 696.40 307.18 709.13
  C 312.11 716.61 318.19 723.36 323.95 730.19
  Q 327.43 734.33 330.77 737.53
  Q 334.37 740.98 338.03 744.34
  Q 338.39 744.67 338.54 745.12
  Q 338.63 745.39 338.83 745.58
  C 339.31 746.07 340.04 746.07 340.57 746.72
  C 343.10 749.79 347.37 752.55 350.44 755.21
  Q 350.82 755.53 351.29 755.70
  Q 351.63 755.83 351.93 756.07
  Q 364.18 766.13 375.11 772.13
  Q 377.96 773.70 379.81 774.89
  Q 383.20 777.08 384.43 777.72
  Q 392.37 781.83 400.26 786.01
  Q 409.81 791.07 428.16 797.12
  C 429.42 797.53 432.40 798.01 434.35 798.90
  C 436.22 799.76 438.13 799.97 439.98 800.79
  C 442.82 802.05 445.77 802.07 448.68 803.10
  C 450.94 803.90 453.10 803.84 455.25 804.46
  Q 461.00 806.12 466.14 806.62
  Q 466.83 806.69 467.81 807.00
  C 471.28 808.11 476.24 808.32 479.91 808.51
  C 481.29 808.58 482.35 809.41 483.68 809.48
  C 496.79 810.21 509.36 810.09 526.14 809.92
  C 532.77 809.86 539.36 808.64 545.98 807.95
  C 551.57 807.36 557.29 806.18 563.01 805.57
  Q 563.51 805.52 563.85 805.15
  Q 564.25 804.72 564.66 804.62
  Q 566.81 804.13 569.82 803.78
  C 572.70 803.45 575.35 802.25 578.38 801.86
  C 581.66 801.44 584.41 800.54 587.75 799.70
  Q 591.14 798.85 603.76 794.98
  C 612.90 792.18 619.82 789.67 628.41 786.59
  C 633.87 784.63 639.14 781.51 644.57 780.42
  A 0.06 0.06 0.0 0 0 644.61 780.32
  Q 644.31 779.99 644.37 779.69
  Q 644.41 779.42 644.69 779.36
  L 647.99 778.62
  Q 648.96 778.40 648.46 778.05
  Q 648.33 777.96 648.30 777.83
  Q 648.22 777.47 648.58 777.39
  Q 649.98 777.10 651.28 776.60
  C 651.94 776.35 652.36 775.65 653.38 775.70
  Q 653.83 775.73 654.23 775.50
  L 685.46 757.59
  A 0.33 0.31 -17.3 0 0 685.62 757.30
  Q 685.62 757.15 685.62 757.01
  Q 685.62 756.65 685.98 756.70
  Q 686.30 756.74 686.47 756.62
  Q 700.49 746.67 713.93 735.94
  Q 715.12 734.99 717.30 732.90
  C 719.21 731.07 722.00 729.45 723.93 727.19
  A 0.45 0.45 0.0 0 1 724.67 727.28
  Q 734.17 746.59 756.24 746.10
  Q 758.09 746.06 759.76 746.77
  A 0.37 0.37 0.0 0 1 759.85 747.40
  L 759.60 747.61
  Q 759.23 747.91 759.00 747.49
  Q 758.91 747.34 758.74 747.35
  Q 758.58 747.37 758.60 747.53
  Q 758.70 748.08 758.40 748.40
  Q 744.40 763.42 728.09 778.96
  C 722.71 784.08 716.16 789.63 710.96 793.38
  Q 705.61 797.25 703.48 798.84
  Q 698.62 802.47 693.65 805.95
  Q 689.37 808.95 683.43 812.47
  Q 676.00 816.87 668.64 821.39
  C 666.08 822.97 662.50 824.05 659.85 826.10
  C 658.45 827.17 656.92 827.00 655.81 828.19
  Q 655.44 828.58 654.92 828.75
  L 652.73 829.45
  A 1.07 1.07 0.0 0 0 652.24 829.77
  Q 651.19 830.93 649.57 831.18
  Q 649.06 831.26 648.64 831.57
  C 646.86 832.92 644.62 833.29 642.92 834.10
  Q 636.61 837.13 629.99 839.40
  Q 627.88 840.12 624.20 841.88
  Q 621.31 843.25 618.21 844.05
  C 616.05 844.62 613.98 846.03 611.46 846.27
  C 610.54 846.36 610.23 846.53 609.72 847.23
  Q 609.40 847.65 608.88 847.73
  L 604.90 848.33
  Q 604.51 848.39 604.21 848.64
  Q 603.89 848.91 603.68 849.28
  A 1.11 1.10 -77.2 0 1 602.82 849.83
  C 600.60 850.03 598.69 850.08 596.49 850.86
  Q 592.96 852.12 589.14 852.29
  Q 588.66 852.31 588.38 852.69
  C 587.15 854.37 582.87 854.19 580.91 854.28
  Q 580.43 854.30 580.49 854.79
  L 580.54 855.19
  Q 580.58 855.48 580.29 855.53
  C 577.56 855.96 575.16 856.07 572.34 856.86
  Q 569.87 857.56 567.26 857.65
  C 564.75 857.73 561.97 858.64 559.23 859.30
  C 557.85 859.64 556.26 859.43 554.95 859.69
  Q 543.70 861.90 540.50 861.76
  Q 537.82 861.65 536.26 861.90
  Q 534.27 862.23 534.22 862.23
  Q 509.68 864.33 498.75 864.00
  C 482.01 863.51 471.02 862.26 461.99 861.66
  C 456.73 861.31 451.68 860.44 446.50 859.56
  C 444.80 859.27 443.16 859.66 441.24 859.02
  C 437.12 857.65 433.08 857.82 429.06 856.75
  C 426.04 855.94 423.18 855.55 420.04 854.56
  C 417.57 853.78 415.14 853.61 412.62 852.73
  C 410.18 851.88 407.90 851.68 405.37 850.66
  Q 403.32 849.83 401.37 849.64
  Q 400.46 849.56 399.99 849.08
  Q 399.65 848.73 399.18 848.60
  C 387.04 845.06 376.08 840.91 362.87 834.87
  Q 350.29 829.12 336.24 820.21
  C 334.34 819.01 331.81 816.86 329.45 815.39
  C 325.35 812.84 321.45 809.96 317.42 807.30
  Q 317.30 807.22 317.31 807.08
  Q 317.31 806.90 317.17 806.79
  Q 314.06 804.47 305.06 796.42
  Q 294.82 787.25 290.71 782.49
  Q 290.48 782.22 290.48 781.86
  Q 290.48 781.44 290.00 781.32
  A 1.15 1.12 76.7 0 1 289.40 780.94
  C 286.42 777.40 283.10 774.34 280.26 770.60
  Q 279.20 769.21 278.05 767.90
  C 274.11 763.46 270.75 758.11 267.34 753.23
  Q 267.31 753.19 267.32 753.14
  Q 267.35 753.01 267.37 752.89
  Q 267.39 752.81 267.34 752.74
  C 263.60 748.54 260.66 742.69 257.83 737.82
  A 0.89 0.88 -56.5 0 1 257.72 737.26
  Q 257.85 736.20 257.02 736.37
  Q 256.37 736.49 256.27 735.84
  C 255.93 733.65 254.29 732.05 253.63 730.02
  Q 253.48 729.54 253.15 729.18
  C 252.20 728.15 251.78 726.57 251.27 725.63
  Q 243.26 710.68 238.22 696.53
  Q 236.71 692.28 235.81 690.11
  C 235.08 688.33 235.01 686.50 234.12 684.79
  C 233.14 682.92 233.12 679.89 231.79 678.53
  Q 231.45 678.17 231.35 677.69
  C 230.98 675.98 230.84 674.46 230.22 672.80
  Q 229.02 669.62 228.60 666.23
  Q 228.54 665.73 228.25 665.32
  C 226.82 663.32 227.03 660.77 226.59 659.01
  Q 222.30 642.03 219.49 624.75
  C 219.10 622.36 219.62 620.50 218.93 618.16
  Q 217.30 612.63 217.22 606.88
  Q 217.18 604.25 216.71 601.72
  Q 216.19 598.90 216.13 596.50
  Q 215.68 576.37 216.09 550.84
  Q 216.09 550.37 216.31 549.96
  Q 216.82 548.98 216.33 547.97
  A 1.91 1.90 -55.7 0 1 216.15 547.00
  C 216.38 543.98 217.53 541.68 217.26 538.64
  C 216.89 534.30 218.33 529.95 219.24 525.75
  C 219.45 524.76 219.09 523.55 219.26 522.75
  Q 220.41 517.19 221.47 511.63
  C 221.62 510.87 221.25 509.85 221.96 509.15
  Q 222.28 508.84 222.21 508.40
  Q 222.10 507.72 222.31 507.01
  Q 224.32 500.12 225.39 493.04
  Q 225.45 492.60 225.69 492.46
  Q 225.87 492.36 226.11 492.38
  Q 226.44 492.42 226.49 492.08
  Q 226.92 488.96 227.58 485.92
  Q 227.65 485.61 227.84 485.40
  Q 227.95 485.29 228.06 485.18
  Q 228.28 484.99 228.36 484.71
  Q 229.09 482.10 229.92 479.51
  Q 229.98 479.34 230.16 479.23
  Q 230.41 479.08 230.46 478.79
  Q 230.88 476.38 231.43 474.01
  Q 231.50 473.71 231.70 473.53
  Q 231.81 473.43 231.94 473.34
  Q 232.18 473.19 232.27 472.93
  Q 234.34 467.09 236.83 461.43
  C 238.59 457.42 240.97 451.03 244.01 446.11
  Q 244.26 445.70 244.27 445.23
  C 244.29 443.97 245.17 443.34 245.55 442.31
  C 247.00 438.45 248.27 436.56 249.60 433.68
  C 250.85 430.97 252.63 428.79 254.13 426.28
  C 254.74 425.26 256.07 423.84 256.56 422.21
  Q 256.67 421.85 257.05 421.81
  Q 257.38 421.78 257.33 421.37
  C 260.38 415.86 264.91 409.86 267.66 405.68
  C 273.89 396.19 280.29 388.80 288.88 379.50
  C 289.30 379.04 290.19 378.68 290.50 377.85
  Q 290.69 377.34 291.07 376.96
  L 310.25 357.81
  A 13.64 9.85 -38.8 0 1 311.68 356.52
  L 325.59 345.22
  Q 325.66 345.16 325.66 345.12
  Q 325.66 345.09 325.65 345.05
  Q 325.62 344.98 325.67 344.95
  Q 334.84 338.04 344.27 331.48
  Q 344.36 331.42 345.50 330.89
  Q 346.23 330.55 346.58 329.85
  Q 346.78 329.46 347.19 329.31
  C 348.19 328.93 349.00 328.78 349.82 328.02
  C 351.13 326.79 352.24 325.67 354.03 324.99
  Q 354.95 324.64 355.96 324.00
  Q 362.97 319.55 365.49 318.50
  Q 371.22 316.13 374.54 314.02
  Q 379.87 310.63 385.10 309.49
  Q 385.59 309.39 386.00 309.10
  Q 386.30 308.89 386.64 308.75
  Q 396.80 304.43 407.24 300.82
  C 408.48 300.40 411.40 299.97 413.17 299.10
  C 415.68 297.87 419.05 298.05 420.74 297.25
  Q 424.12 295.63 427.21 295.64
  Q 428.22 295.64 428.74 295.11
  Q 429.08 294.76 429.56 294.67
  Q 433.75 293.82 438.00 293.51
  C 438.94 293.44 439.65 292.72 440.72 292.61
  Q 446.96 291.95 453.19 291.25
  C 453.96 291.17 454.14 291.32 454.83 291.55
  Q 455.26 291.70 455.48 291.30
  Q 456.14 290.11 457.75 290.33
  C 461.31 290.83 465.55 290.28 468.16 290.23
  Q 484.20 289.90 500.24 290.15
  C 502.58 290.18 506.26 291.03 509.28 290.44
  Q 510.77 290.15 511.11 290.40
  Q 513.21 291.89 510.69 291.93
  L 508.08 291.97
  Q 507.53 291.98 507.39 292.51
  Q 507.35 292.68 507.38 292.86
  Q 507.51 293.60 506.76 293.66
  Q 504.85 293.80 503.61 295.22
  A 1.47 1.45 16.0 0 1 502.73 295.70
  L 499.00 296.29
  Q 498.58 296.35 498.29 296.66
  Q 496.44 298.58 493.70 298.21
  Q 493.11 298.14 493.27 298.71
  Q 493.32 298.89 493.58 298.91
  A 0.32 0.32 0.0 0 1 493.61 299.55
  Q 493.26 299.61 492.94 299.41
  A 0.87 0.87 0.0 0 0 491.99 299.45
  Q 488.80 301.78 484.92 302.36
  Q 484.32 302.46 483.98 302.96
  L 483.80 303.22
  Q 483.58 303.56 483.19 303.68
  Q 478.85 304.93 474.95 307.16
  C 474.11 307.64 473.21 307.47 472.42 307.88
  C 468.98 309.67 465.31 310.61 461.90 312.32
  C 460.50 313.02 458.79 313.12 457.66 314.21
  Q 457.43 314.45 457.14 314.54
  C 454.28 315.48 450.79 317.33 447.83 317.31
  Q 447.42 317.31 447.37 317.71
  Q 447.35 317.87 447.45 317.99
  A 0.37 0.36 64.3 0 1 447.25 318.57
  L 443.24 319.50
  Q 442.80 319.60 442.68 320.04
  Q 442.65 320.17 442.56 320.27
  Q 442.18 320.71 442.00 320.73
  L 437.67 321.39
  A 0.61 0.56 -72.3 0 0 437.30 321.60
  L 436.86 322.13
  A 1.40 1.35 -77.8 0 1 436.19 322.58
  C 433.63 323.39 431.60 324.45 428.81 325.17
  Q 427.49 325.51 426.38 326.36
  A 1.98 1.94 21.1 0 1 425.50 326.74
  C 423.03 327.14 420.95 328.65 419.17 329.35
  Q 405.34 334.80 392.44 342.21
  Q 391.84 342.56 391.00 342.47
  Q 390.56 342.42 390.74 342.82
  Z"
/>
<path fill="#000000" d="
  M 384.47 477.49
  C 384.70 475.88 384.88 472.19 386.01 471.00
  Q 386.34 470.65 386.48 470.20
  Q 387.33 467.45 388.52 464.84
  Q 390.21 461.16 390.84 459.55
  Q 394.93 449.08 400.66 439.40
  Q 402.37 436.50 409.56 426.66
  Q 409.95 426.13 410.83 425.22
  Q 411.52 424.52 412.06 423.72
  Q 418.65 413.82 426.42 407.92
  Q 427.25 407.29 427.54 406.78
  Q 427.78 406.36 428.20 406.12
  Q 432.20 403.79 435.58 400.66
  Q 435.78 400.47 435.94 400.47
  Q 436.09 400.46 436.20 400.57
  Q 436.34 400.71 436.21 400.86
  Q 435.99 401.11 435.95 401.24
  A 0.38 0.35 70.3 0 0 436.60 401.58
  Q 436.78 401.25 436.83 400.89
  Q 436.90 400.34 437.41 400.13
  C 438.50 399.66 438.98 398.83 439.93 398.36
  C 443.51 396.59 446.60 394.67 450.57 393.81
  C 456.80 392.44 461.74 391.11 468.22 392.40
  Q 468.78 392.51 469.00 393.04
  Q 469.22 393.59 469.80 393.74
  Q 470.35 393.88 470.55 394.41
  Q 472.56 399.70 468.92 403.92
  Q 461.33 412.70 452.14 421.95
  C 447.75 426.36 443.61 431.34 439.23 435.95
  C 437.44 437.85 435.30 440.76 433.10 443.00
  C 430.45 445.69 428.44 449.13 426.03 452.07
  Q 425.05 453.26 424.60 454.78
  Q 424.45 455.27 424.00 455.42
  Q 423.57 455.58 423.41 456.00
  Q 422.88 457.38 421.87 458.43
  Q 421.53 458.78 421.44 459.25
  Q 421.34 459.76 421.21 459.99
  Q 417.71 466.30 414.43 472.73
  Q 414.28 473.02 414.04 473.22
  Q 413.67 473.53 413.51 473.99
  Q 410.41 483.01 406.90 491.87
  Q 405.92 494.35 405.60 497.00
  Q 405.56 497.26 405.42 497.43
  Q 405.17 497.73 405.00 497.38
  Q 404.89 497.15 404.68 497.11
  Q 404.34 497.03 404.35 497.38
  C 404.54 501.45 402.72 504.16 402.17 507.93
  C 401.77 510.69 400.59 513.03 400.20 515.75
  C 399.77 518.77 398.62 521.55 398.27 524.47
  C 397.81 528.47 396.68 532.35 396.30 536.23
  C 395.82 541.28 394.77 546.49 394.41 551.24
  Q 394.10 555.22 393.75 559.19
  C 393.61 560.75 393.82 563.67 393.23 565.98
  Q 392.76 567.81 392.80 569.08
  C 393.11 581.85 392.65 589.87 392.90 599.07
  C 392.97 601.74 392.65 604.26 392.63 606.88
  Q 392.63 607.37 392.89 607.79
  Q 393.45 608.68 393.49 609.25
  Q 393.84 615.12 394.07 621.24
  Q 394.20 624.46 392.63 621.65
  C 391.81 620.19 391.69 617.78 390.71 615.94
  C 389.51 613.67 389.04 610.97 388.34 609.06
  Q 384.84 599.45 382.23 589.56
  A 1.23 1.22 -74.4 0 0 381.93 589.02
  C 380.40 587.37 381.30 582.97 379.71 580.58
  Q 379.49 580.26 379.44 579.87
  Q 378.98 576.05 378.55 572.24
  C 378.45 571.28 377.74 570.11 377.59 568.89
  Q 377.00 564.08 376.59 559.25
  C 376.42 557.28 375.69 555.40 375.56 553.56
  C 374.59 539.82 375.17 528.99 375.51 518.04
  C 375.57 515.95 376.53 514.24 376.57 512.00
  C 376.66 506.62 378.00 501.76 378.88 496.53
  C 379.36 493.60 380.46 490.96 380.84 488.04
  Q 381.10 486.05 381.56 484.10
  Q 381.63 483.77 381.95 483.63
  Q 382.15 483.55 382.34 483.45
  A 0.33 0.30 -12.5 0 0 382.50 483.22
  L 383.34 477.54
  A 0.31 0.31 0.0 0 1 383.87 477.37
  L 384.11 477.61
  Q 384.41 477.90 384.47 477.49
  Z"
/>
<path fill="#000000" d="
  M 788.60 643.46
  L 789.23 639.82
  Q 789.32 639.33 789.78 639.49
  Q 789.95 639.54 790.11 639.58
  Q 790.68 639.72 790.67 639.13
  Q 790.65 637.74 790.88 637.22
  C 794.07 629.87 797.91 622.83 800.52 615.25
  C 801.24 613.17 802.35 611.23 802.91 609.17
  Q 804.51 603.37 806.77 597.78
  C 807.62 595.68 807.87 593.27 808.76 591.06
  Q 809.49 589.21 809.96 586.78
  C 810.36 584.68 811.40 582.89 811.86 581.03
  C 813.92 572.59 816.09 564.14 817.47 555.56
  Q 819.13 545.27 819.18 544.96
  Q 821.61 530.34 822.30 515.51
  C 822.35 514.46 823.00 513.56 822.30 512.33
  Q 822.18 512.13 822.39 512.03
  L 822.40 512.02
  Q 822.61 511.92 822.70 512.14
  Q 822.97 512.81 822.95 513.55
  C 822.90 515.56 824.07 516.05 824.38 517.76
  C 825.03 521.46 826.42 524.76 826.79 528.48
  C 827.21 532.80 828.33 537.18 828.77 541.21
  C 829.92 551.74 831.13 559.79 831.05 572.50
  Q 830.97 586.42 831.10 599.92
  A 2.99 2.98 78.2 0 1 829.29 602.70
  L 807.90 611.84
  A 3.19 3.17 -12.1 0 0 805.97 614.80
  C 806.09 623.04 805.55 631.06 806.11 639.50
  Q 806.35 643.17 809.54 644.39
  C 814.61 646.34 816.86 644.04 819.43 639.71
  Q 821.78 635.74 824.52 632.06
  Q 825.18 631.19 825.19 632.28
  Q 825.22 633.61 824.63 635.31
  C 823.10 639.70 822.22 644.09 820.30 648.42
  Q 819.13 651.06 818.31 653.85
  Q 818.18 654.26 817.87 654.55
  Q 817.44 654.94 817.57 655.55
  Q 817.67 656.05 817.51 656.53
  C 816.50 659.59 814.61 662.07 813.78 665.19
  C 813.39 666.67 812.32 667.58 811.78 669.08
  Q 811.39 670.16 810.74 671.23
  C 810.17 672.16 809.96 673.32 809.41 674.22
  Q 807.81 676.84 806.30 679.49
  C 805.78 680.40 804.97 680.94 804.47 681.72
  Q 800.37 688.21 796.54 694.84
  Q 796.51 694.89 795.50 696.17
  Q 795.01 696.81 794.44 697.98
  Q 792.72 701.53 790.76 705.47
  A 1.40 1.40 0.0 0 1 788.47 705.79
  Q 784.36 701.28 778.29 703.29
  C 776.17 703.99 775.46 705.49 775.07 707.52
  C 773.73 714.45 767.47 725.01 759.24 725.17
  C 750.93 725.33 751.96 701.98 752.38 697.52
  Q 752.43 696.99 752.77 696.57
  L 761.27 685.76
  Q 763.36 683.11 765.61 679.21
  Q 765.72 679.00 767.77 676.48
  Q 768.91 675.07 769.83 673.67
  Q 779.42 659.16 787.45 643.73
  Q 787.65 643.34 788.03 643.58
  Q 788.20 643.69 788.48 643.60
  A 0.18 0.17 87.8 0 0 788.60 643.46
  Z"
/>
<path fill="#000000" d="
  M 602.79 634.15
  C 582.42 626.37 559.77 615.29 554.10 591.99
  Q 551.13 579.77 553.88 567.05
  C 560.95 534.37 594.50 521.41 624.49 523.63
  C 635.46 524.44 646.10 526.74 656.93 529.07
  C 660.74 529.89 664.33 530.07 668.06 530.06
  Q 668.99 530.06 668.99 530.99
  L 669.00 561.87
  Q 669.00 563.25 667.63 563.21
  L 667.17 563.20
  A 1.00 0.99 90.0 0 1 666.21 562.23
  C 665.74 546.03 654.15 539.01 639.72 536.44
  C 626.57 534.10 609.74 533.00 597.95 538.12
  C 586.75 542.98 577.73 554.04 575.59 566.48
  C 574.04 575.53 574.07 584.36 578.89 592.40
  C 584.11 601.10 596.58 608.60 605.97 612.33
  Q 624.22 619.57 642.50 626.79
  C 667.30 636.59 687.36 654.43 687.21 683.49
  C 686.96 730.18 642.49 747.39 602.85 742.65
  Q 596.03 741.84 583.39 738.21
  Q 573.61 735.41 563.79 732.75
  Q 561.22 732.06 558.79 731.87
  A 0.87 0.86 2.5 0 1 558.00 731.01
  L 557.98 696.33
  Q 557.98 694.83 559.48 694.90
  L 559.87 694.92
  A 0.98 0.98 0.0 0 1 560.80 695.84
  C 561.20 702.49 562.34 708.74 566.69 714.08
  C 580.48 731.00 605.39 734.48 625.25 731.30
  C 649.71 727.39 667.52 705.88 664.78 680.74
  C 663.03 664.72 647.39 652.32 633.50 646.47
  Q 618.25 640.05 602.79 634.15
  Z"
/>
<path fill="#000000" d="
  M 1098.67 661.76
  Q 1098.67 664.14 1100.26 662.37
  C 1105.42 656.65 1111.41 651.87 1116.96 646.55
  C 1127.76 636.21 1138.76 626.12 1149.64 615.89
  C 1151.74 613.93 1153.99 612.12 1152.70 608.70
  Q 1152.53 608.24 1152.08 608.02
  Q 1151.01 607.51 1150.91 606.21
  A 1.12 1.11 88.1 0 1 1152.02 605.02
  L 1179.20 605.01
  A 0.97 0.94 71.4 0 1 1179.97 605.41
  Q 1180.56 606.24 1179.89 607.00
  Q 1179.56 607.37 1178.79 607.59
  C 1171.47 609.68 1166.83 614.82 1161.62 619.64
  Q 1142.93 636.94 1124.25 654.26
  Q 1122.71 655.69 1121.32 657.15
  A 0.28 0.28 0.0 0 0 1121.31 657.52
  Q 1148.09 691.29 1173.91 723.85
  Q 1181.14 732.96 1191.35 738.45
  Q 1192.10 738.85 1192.19 739.71
  A 1.08 1.07 84.8 0 1 1191.21 740.89
  Q 1180.08 741.83 1168.98 740.43
  C 1161.24 739.46 1151.15 729.88 1146.87 724.38
  Q 1126.61 698.28 1106.38 672.18
  A 1.35 1.35 0.0 0 0 1104.36 672.06
  L 1099.11 677.36
  Q 1098.66 677.81 1098.66 678.46
  Q 1098.66 698.24 1098.70 717.99
  C 1098.71 725.85 1100.26 734.57 1108.17 738.23
  A 1.69 1.69 0.0 0 1 1108.97 740.51
  Q 1108.74 740.98 1107.50 740.99
  Q 1088.39 741.03 1068.60 741.01
  A 1.72 1.71 -26.2 0 1 1067.56 740.66
  Q 1066.66 739.98 1067.23 739.08
  Q 1067.48 738.68 1068.17 738.30
  C 1074.54 734.76 1077.33 728.20 1077.33 720.99
  Q 1077.33 637.74 1077.33 554.50
  Q 1077.33 554.02 1077.08 552.76
  C 1076.91 551.95 1077.13 551.16 1076.83 550.42
  Q 1074.13 543.67 1067.62 540.62
  A 1.47 1.47 0.0 0 1 1067.51 538.01
  Q 1068.42 537.49 1069.59 537.13
  Q 1082.18 533.24 1097.49 528.38
  Q 1098.67 528.01 1098.67 529.24
  L 1098.67 661.76
  Z"
/>
<path fill="#000000" d="
  M 724.23 615.00
  L 707.99 615.00
  A 1.00 1.00 0.0 0 1 706.99 613.99
  L 707.04 605.98
  Q 707.05 605.02 708.01 605.01
  L 723.79 604.99
  A 1.59 1.59 0.0 0 0 725.38 603.39
  C 725.33 591.96 725.95 580.11 724.73 568.77
  C 724.05 562.51 720.56 561.29 715.22 559.82
  A 1.44 1.42 -6.7 0 1 714.36 559.15
  Q 713.81 558.21 714.38 557.52
  Q 714.68 557.16 715.46 556.91
  Q 728.58 552.74 741.62 548.36
  C 742.73 547.99 744.25 548.27 745.33 547.17
  A 0.78 0.78 0.0 0 1 746.67 547.71
  L 746.66 603.58
  Q 746.66 605.00 748.08 605.00
  L 782.02 605.01
  Q 783.04 605.01 783.03 606.02
  L 783.01 614.00
  A 1.01 1.00 0.3 0 1 782.00 614.99
  L 747.99 615.00
  Q 746.70 615.00 746.70 616.29
  Q 746.56 661.42 746.80 706.34
  C 746.83 712.52 747.52 721.88 751.39 726.57
  C 754.99 730.95 761.78 730.93 766.52 728.49
  C 773.86 724.72 778.45 716.60 780.29 708.77
  A 1.16 1.15 0.7 0 1 781.18 707.91
  C 782.55 707.64 782.95 708.84 782.99 710.00
  Q 783.34 720.29 782.85 730.81
  A 0.72 0.72 0.0 0 1 782.27 731.48
  C 781.02 731.73 780.05 732.00 779.02 732.87
  Q 766.67 743.29 748.98 740.33
  C 729.03 736.98 725.54 717.35 725.89 700.44
  C 725.92 699.41 725.33 698.59 725.33 697.75
  Q 725.32 657.07 725.34 616.11
  A 1.11 1.11 0.0 0 0 724.23 615.00
  Z"
/>
<path fill="#000000" d="
  M 893.34 725.30
  A 0.48 0.48 0.0 0 0 892.51 724.97
  C 877.10 741.18 855.84 745.69 834.28 742.09
  C 821.05 739.88 809.79 732.67 806.16 719.22
  C 798.73 691.75 820.89 677.19 842.26 668.31
  C 856.77 662.27 875.90 657.44 892.80 652.74
  Q 893.26 652.61 893.27 652.12
  Q 893.40 634.25 880.79 622.48
  C 871.11 613.44 857.05 611.35 844.25 613.22
  C 830.50 615.23 820.38 626.95 814.09 638.37
  Q 813.21 639.96 812.06 639.90
  Q 810.91 639.85 810.91 638.70
  L 810.90 617.36
  A 1.42 1.41 78.3 0 1 811.75 616.06
  Q 825.10 610.17 838.21 604.93
  Q 841.67 603.55 847.98 602.94
  C 872.80 600.53 903.55 604.67 911.44 633.01
  Q 913.90 641.86 913.92 652.75
  Q 913.97 686.37 914.03 720.00
  C 914.05 726.83 916.38 735.88 924.05 738.05
  A 1.55 1.55 0.0 0 1 925.18 739.70
  Q 925.07 740.89 923.75 740.90
  Q 908.86 741.02 893.84 741.00
  A 0.51 0.51 0.0 0 1 893.33 740.49
  L 893.34 725.30
  Z
  M 867.26 670.49
  C 853.83 674.61 833.47 684.46 827.26 697.76
  C 822.63 707.68 826.37 719.61 835.51 725.51
  C 848.65 733.99 867.64 732.83 879.95 723.21
  C 885.29 719.04 889.73 715.58 893.06 710.03
  Q 893.33 709.57 893.33 709.05
  L 893.33 665.51
  Q 893.33 663.24 891.13 663.80
  Q 878.82 666.94 867.26 670.49
  Z"
/>
<path fill="#000000" d="
  M 987.97 620.46
  A 0.41 0.41 0.0 0 0 988.67 620.76
  C 992.87 616.69 997.26 611.61 1001.57 608.66
  C 1015.10 599.39 1029.93 601.94 1044.19 607.92
  A 0.91 0.91 0.0 0 1 1044.66 609.16
  L 1035.75 627.59
  A 0.16 0.16 0.0 0 1 1035.47 627.60
  C 1028.98 617.71 1017.88 615.78 1007.59 621.07
  Q 998.44 625.78 990.24 633.25
  C 988.69 634.66 988.01 635.56 988.01 637.80
  Q 987.98 678.90 988.02 720.00
  C 988.03 726.83 990.26 734.82 996.87 738.05
  Q 997.49 738.35 997.78 738.76
  Q 998.22 739.40 998.18 739.88
  A 1.18 1.18 0.0 0 1 997.00 740.99
  Q 977.63 740.97 959.00 741.08
  Q 957.24 741.09 956.36 740.59
  A 1.22 1.22 0.0 0 1 956.51 738.40
  C 966.24 734.49 966.84 722.56 966.87 714.25
  Q 967.02 672.50 967.00 630.75
  C 966.99 623.68 962.71 616.82 955.73 614.55
  Q 955.25 614.40 955.01 614.14
  Q 954.58 613.68 954.67 613.31
  A 1.82 1.70 89.7 0 1 955.85 612.03
  L 987.20 602.55
  Q 988.04 602.30 988.04 603.18
  L 987.97 620.46
  Z"
/>
<path fill="#000000" d="
  M 762.94 766.78
  Q 761.90 766.98 761.93 768.03
  L 762.06 772.36
  Q 762.09 773.33 763.06 773.31
  L 766.53 773.26
  A 0.99 0.97 -65.4 0 0 767.18 773.01
  Q 767.75 772.54 768.48 772.44
  Q 769.19 772.34 769.12 773.06
  L 768.93 775.09
  A 0.61 0.61 0.0 0 1 768.22 775.64
  L 763.70 774.91
  Q 762.06 774.64 762.03 776.31
  L 761.92 782.04
  Q 761.89 783.71 763.55 783.95
  Q 766.45 784.35 769.11 783.17
  A 0.92 0.92 0.0 0 0 769.56 782.75
  L 770.35 781.27
  A 0.30 0.30 0.0 0 1 770.91 781.36
  Q 771.17 782.90 770.91 784.45
  A 0.74 0.74 0.0 0 1 770.18 785.07
  L 759.34 785.15
  Q 758.72 785.15 758.76 784.54
  Q 759.28 775.75 758.68 767.02
  Q 758.63 766.26 758.59 765.47
  Q 758.56 764.87 759.16 764.88
  L 768.70 765.03
  Q 769.86 765.05 770.05 766.20
  L 770.17 766.91
  Q 770.35 767.98 769.37 767.52
  Q 766.35 766.11 762.94 766.78
  Z"
/>
<circle fill="#000000" cx="806.10" cy="769.05" r="1.78"/>
<path fill="#000000" d="
  M 781.91 785.31
  A 0.28 0.27 -14.5 0 0 781.56 785.11
  C 768.60 789.05 770.70 767.65 781.44 772.54
  Q 782.89 773.19 783.48 772.24
  Q 784.99 769.82 784.99 772.75
  L 785.00 789.75
  Q 785.00 790.15 785.15 790.68
  Q 785.25 791.04 785.46 791.30
  Q 785.76 791.69 785.26 791.69
  L 781.71 791.65
  A 0.48 0.47 -76.8 0 1 781.29 790.97
  Q 782.55 788.30 781.91 785.31
  Z
  M 774.90 779.65
  A 2.54 2.54 0.0 0 0 775.88 781.85
  L 777.94 783.44
  A 2.54 2.54 0.0 0 0 782.04 781.41
  L 782.00 776.51
  A 2.54 2.54 0.0 0 0 779.44 773.99
  L 777.67 774.00
  A 2.54 2.54 0.0 0 0 775.15 776.35
  L 774.90 779.65
  Z"
/>
<path fill="#000000" d="
  M 805.13 785.08
  A 0.28 0.28 0.0 0 1 804.84 784.80
  L 804.61 773.79
  A 1.96 1.14 88.8 0 1 805.71 771.80
  L 806.85 771.78
  A 1.96 1.14 88.8 0 1 808.03 773.72
  L 808.26 784.73
  A 0.28 0.28 0.0 0 1 807.99 785.02
  L 805.13 785.08
  Z"
/>
<path fill="#000000" d="
  M 796.75 783.12
  C 798.63 781.58 798.00 775.90 797.52 773.84
  Q 797.25 772.64 798.42 772.27
  L 799.18 772.03
  A 0.98 0.98 0.0 0 1 800.46 772.94
  L 800.78 784.29
  Q 800.80 784.90 800.20 784.96
  Q 797.71 785.22 795.23 785.41
  C 787.71 786.00 789.14 778.13 788.68 773.49
  Q 788.56 772.36 789.69 772.15
  L 790.69 771.97
  Q 792.01 771.73 792.00 773.07
  Q 791.97 776.63 792.04 780.49
  C 792.09 783.02 794.40 785.05 796.75 783.12
  Z"
/>
<path fill="#000000" d="
  M 815.03 785.58
  Q 814.45 788.53 815.91 790.99
  A 0.46 0.46 0.0 0 1 815.52 791.68
  L 811.78 791.70
  Q 811.48 791.70 811.58 791.42
  Q 811.95 790.32 811.94 788.00
  Q 811.94 776.09 811.81 772.45
  Q 811.80 772.02 812.23 772.03
  Q 815.27 772.12 818.25 772.02
  C 826.14 771.75 827.63 784.45 818.30 785.78
  A 1.58 1.54 -35.6 0 1 817.39 785.64
  Q 816.51 785.21 815.57 785.16
  Q 815.12 785.14 815.03 785.58
  Z
  M 818.8725 784.0026
  A 5.18 3.64 84.1 0 0 821.9607 778.4758
  A 5.18 3.64 84.1 0 0 817.8075 773.6974
  A 5.18 3.64 84.1 0 0 814.7193 779.2242
  A 5.18 3.64 84.1 0 0 818.8725 784.0026
  Z"
/>
<path fill="#000000" d="
  M 829.29 780.37
  Q 829.39 781.20 830.14 781.93
  C 833.11 784.83 835.28 784.81 838.62 781.15
  Q 839.34 780.37 839.17 781.42
  L 838.91 783.05
  A 1.70 1.69 79.7 0 1 838.09 784.24
  Q 833.10 787.08 828.34 783.96
  A 1.41 1.39 -83.9 0 1 827.80 783.28
  C 827.12 781.38 826.08 779.67 826.50 777.66
  Q 827.99 770.66 835.25 772.20
  Q 837.92 772.76 838.65 775.39
  L 839.17 777.25
  Q 839.66 778.99 837.85 779.00
  L 830.47 779.03
  A 1.19 1.19 0.0 0 0 829.29 780.37
  Z
  M 829.25 777.39
  L 836.75 777.41
  A 0.12 0.12 0.0 0 0 836.87 777.29
  L 836.87 777.26
  A 3.71 3.35 0.1 0 0 833.16 773.90
  L 832.84 773.90
  A 3.71 3.35 0.1 0 0 829.13 777.24
  L 829.13 777.27
  A 0.12 0.12 0.0 0 0 829.25 777.39
  Z"
/>
</svg>
